<?xml version="1.0" encoding="UTF-8"?>
<svg version="1.1" xmlns="http://www.w3.org/2000/svg" width="1080" height="1080">
<path d="M0 0 C0.79277344 0.00322266 1.58554687 0.00644531 2.40234375 0.00976562 C3.21058594 0.01814453 4.01882813 0.02652344 4.8515625 0.03515625 C5.68300781 0.03966797 6.51445313 0.04417969 7.37109375 0.04882812 C9.40628147 0.06052461 11.44143173 0.0784569 13.4765625 0.09765625 C14.15525391 1.51884766 14.15525391 1.51884766 14.84765625 2.96875 C16.28532391 6.11313629 16.28532391 6.11313629 18.5390625 8.16015625 C20.71029555 10.3313893 21.51412318 12.21033828 22.4765625 15.09765625 C23.1365625 15.09765625 23.7965625 15.09765625 24.4765625 15.09765625 C25.0334375 16.10828125 25.5903125 17.11890625 26.1640625 18.16015625 C27.6546142 20.78183584 29.25085882 23.23253428 31.0390625 25.66015625 C32.69506139 27.9086685 33.85186281 29.86269149 35.1015625 32.41015625 C36.33163422 35.3535387 36.33163422 35.3535387 39.4765625 37.09765625 C39.46085205 35.52298584 39.46085205 35.52298584 39.44482422 33.91650391 C39.40867797 30.02900592 39.38568172 26.14152284 39.36669922 22.25390625 C39.35662933 20.56996159 39.34297262 18.88603446 39.32568359 17.20214844 C39.30147824 14.78446124 39.29008954 12.36700482 39.28125 9.94921875 C39.27092743 9.19395905 39.26060486 8.43869934 39.24996948 7.66055298 C39.24956932 5.80471645 39.35433534 3.94946345 39.4765625 2.09765625 C41.87183521 -0.29761646 42.42282527 -0.15827923 45.6875 -0.16796875 C46.52023437 -0.17054688 47.35296875 -0.173125 48.2109375 -0.17578125 C49.08234375 -0.16804688 49.95375 -0.1603125 50.8515625 -0.15234375 C51.71523438 -0.16007812 52.57890625 -0.1678125 53.46875 -0.17578125 C54.3040625 -0.17320312 55.139375 -0.170625 56 -0.16796875 C57.143479 -0.16458496 57.143479 -0.16458496 58.31005859 -0.16113281 C60.73843624 0.12893709 62.32941473 0.96474492 64.4765625 2.09765625 C64.49968678 11.98955001 64.51747802 21.88143739 64.52837467 31.77335262 C64.53360332 36.36608265 64.54070062 40.95879425 64.55200195 45.55151367 C64.5628315 49.97999313 64.56883948 54.40845481 64.57143974 58.83694649 C64.57329387 60.53031253 64.57691425 62.22367754 64.58229256 63.91703606 C64.5895039 66.28056857 64.5905534 68.6440267 64.59008789 71.00756836 C64.59368317 71.71462921 64.59727844 72.42169006 64.60098267 73.150177 C64.59061466 77.98360409 64.59061466 77.98360409 63.4765625 79.09765625 C44.04327806 82.09864076 44.04327806 82.09864076 37.47705078 77.78369141 C33.19299223 73.20445814 30.69560005 67.20827487 29.4765625 61.09765625 C28.8165625 61.09765625 28.1565625 61.09765625 27.4765625 61.09765625 C26.16381836 59.4453125 26.16381836 59.4453125 24.69140625 57.16015625 C24.16095703 56.34804688 23.63050781 55.5359375 23.08398438 54.69921875 C22.53291016 53.84070313 21.98183594 52.9821875 21.4140625 52.09765625 C20.32201199 50.40821226 19.22712016 48.72060026 18.12890625 47.03515625 C17.64413818 46.28105469 17.15937012 45.52695312 16.65991211 44.75 C16.26940674 44.20472656 15.87890137 43.65945313 15.4765625 43.09765625 C15.1465625 43.09765625 14.8165625 43.09765625 14.4765625 43.09765625 C14.1465625 54.97765625 13.8165625 66.85765625 13.4765625 79.09765625 C5.5565625 79.09765625 -2.3634375 79.09765625 -10.5234375 79.09765625 C-10.5234375 53.35765625 -10.5234375 27.61765625 -10.5234375 1.09765625 C-6.69229467 0.45913245 -3.7416699 -0.02711355 0 0 Z " fill="#0B0B0B" transform="translate(795.5234375,455.90234375)"/>
<path d="M0 0 C5.81664728 -0.02486237 11.63326309 -0.04293649 17.44995117 -0.05493164 C19.4255426 -0.05993641 21.40113036 -0.06674225 23.37670898 -0.07543945 C26.22901314 -0.08767492 29.08126799 -0.09326702 31.93359375 -0.09765625 C32.80584091 -0.10281754 33.67808807 -0.10797882 34.57676697 -0.11329651 C41.84097594 -0.11394954 48.9777805 0.37566202 56.0625 2.0625 C56.81660156 2.23910156 57.57070313 2.41570312 58.34765625 2.59765625 C58.89292969 2.73042969 59.43820312 2.86320312 60 3 C60 3.66 60 4.32 60 5 C60.5775 5.2475 61.155 5.495 61.75 5.75 C65.75689261 7.97605145 68.23733376 10.80352681 70 15 C71.44074496 22.4853742 71.4572084 29.1138053 68 36 C65.818884 39.20351413 64.22902885 40.8473141 61 43 C60.01 43 59.02 43 58 43 C58.55429687 43.75925781 59.10859375 44.51851563 59.6796875 45.30078125 C60.40414062 46.29464844 61.12859375 47.28851563 61.875 48.3125 C62.59429687 49.29863281 63.31359375 50.28476562 64.0546875 51.30078125 C68 56.7751004 68 56.7751004 68 60 C68.66 60 69.32 60 70 60 C70.84266711 61.74552473 71.67380038 63.4966208 72.5 65.25 C73.19609375 66.71179688 73.19609375 66.71179688 73.90625 68.203125 C75 71 75 71 75 75 C75.66 75 76.32 75 77 75 C76.505 76.98 76.505 76.98 76 79 C71.72918086 79.02897435 67.45838691 79.04678996 63.1875 79.0625 C61.36508789 79.07506836 61.36508789 79.07506836 59.50585938 79.08789062 C58.34248047 79.09111328 57.17910156 79.09433594 55.98046875 79.09765625 C54.90692139 79.10289307 53.83337402 79.10812988 52.72729492 79.11352539 C50 79 50 79 47 78 C45.8125 74.4375 45.8125 74.4375 45 71 C44.34 71 43.68 71 43 71 C42.71125 70.030625 42.4225 69.06125 42.125 68.0625 C41.35785318 64.89335797 41.35785318 64.89335797 39 64 C39 63.01 39 62.02 39 61 C38.34 60.34 37.68 59.68 37 59 C35.78786515 56.72033586 34.64520902 54.41345103 33.51171875 52.09375 C31.87423043 49.43217159 31.87423043 49.43217159 27 48 C26.67 57.9 26.34 67.8 26 78 C23.17554408 78.94148531 21.85828382 79.07311695 18.98828125 78.87890625 C18.23095703 78.83056641 17.47363281 78.78222656 16.69335938 78.73242188 C15.90767578 78.67634766 15.12199219 78.62027344 14.3125 78.5625 C13.51521484 78.51029297 12.71792969 78.45808594 11.89648438 78.40429688 C9.93063478 78.27480978 7.96526335 78.13809959 6 78 C5.505 78.99 5.505 78.99 5 80 C5 79.34 5 78.68 5 78 C3.02 78 1.04 78 -1 78 C-1.02313799 68.12537698 -1.04092255 58.25076037 -1.05181217 48.3761158 C-1.0570378 43.79126149 -1.06412967 39.20642569 -1.07543945 34.62158203 C-1.08627967 30.19958183 -1.09227925 25.77759946 -1.09487724 21.35558701 C-1.09672944 19.66583856 -1.10034614 17.97609113 -1.10573006 16.28635025 C-1.11295551 13.92541622 -1.1139903 11.56455653 -1.11352539 9.20361328 C-1.11712067 8.50014771 -1.12071594 7.79668213 -1.12442017 7.07189941 C-1.11405216 2.22810432 -1.11405216 2.22810432 0 0 Z M26 18 C26 22.62 26 27.24 26 32 C28.41926039 31.93981939 30.83248672 31.85277783 33.25 31.75 C33.93191406 31.73582031 34.61382812 31.72164063 35.31640625 31.70703125 C38.73575863 31.54104327 40.71778549 31.20967034 43.4921875 29.1484375 C45.31692188 27.01044808 45.31692188 27.01044808 44.875 23.875 C44.21691176 20.90318627 44.21691176 20.90318627 42 19 C36.63563607 17.90523185 31.44619658 17.91621236 26 18 Z " fill="#111111" transform="translate(225,456)"/>
<path d="M0 0 C0.96292969 -0.020625 1.92585938 -0.04125 2.91796875 -0.0625 C3.84222656 -0.06765625 4.76648438 -0.0728125 5.71875 -0.078125 C6.56373047 -0.0874707 7.40871094 -0.09681641 8.27929688 -0.10644531 C10.95490581 0.32301698 11.82015679 1.18092483 13.5 3.25 C13.17 3.91 12.84 4.57 12.5 5.25 C12.34733388 6.98868744 12.25067404 8.73247501 12.18359375 10.4765625 C12.14548584 11.40549316 12.10737793 12.33442383 12.06811523 13.29150391 C12.00346069 15.06533447 12.00346069 15.06533447 11.9375 16.875 C11.793125 20.62875 11.64875 24.3825 11.5 28.25 C19.09 28.25 26.68 28.25 34.5 28.25 C34.46519531 26.48011719 34.43039062 24.71023438 34.39453125 22.88671875 C34.36639688 20.57032197 34.33909634 18.25391495 34.3125 15.9375 C34.28736328 14.77025391 34.26222656 13.60300781 34.23632812 12.40039062 C34.22666016 11.28212891 34.21699219 10.16386719 34.20703125 9.01171875 C34.1913208 7.98006592 34.17561035 6.94841309 34.15942383 5.88549805 C34.5 3.25 34.5 3.25 35.71948242 1.41259766 C38.03523339 -0.09948326 39.52496545 -0.12300498 42.28125 -0.11328125 C43.20550781 -0.11263672 44.12976563 -0.11199219 45.08203125 -0.11132812 C46.52642578 -0.0871582 46.52642578 -0.0871582 48 -0.0625 C48.96292969 -0.06572266 49.92585937 -0.06894531 50.91796875 -0.07226562 C58.09923115 -0.01717923 58.09923115 -0.01717923 61.5 2.25 C61.79204046 4.7286455 61.88900515 6.95764539 61.85644531 9.43774414 C61.85848969 10.17770126 61.86053406 10.91765839 61.86264038 11.68003845 C61.86565468 14.13199371 61.84715399 16.58328067 61.828125 19.03515625 C61.82506867 20.73383925 61.82319159 22.43252474 61.82244873 24.13121033 C61.81784176 27.69312105 61.80339985 31.25480618 61.78125 34.81665039 C61.75294581 39.39246123 61.74203688 43.96809435 61.7375679 48.54398441 C61.73342004 52.05173028 61.72360824 55.55943988 61.71169281 59.06716728 C61.70597828 60.75494532 61.70122351 62.44272689 61.69742584 64.13051033 C61.69058465 66.48428672 61.67696318 68.83791949 61.66113281 71.19165039 C61.66001495 71.89556915 61.65889709 72.59948792 61.65774536 73.32473755 C61.61468769 78.13531231 61.61468769 78.13531231 60.5 79.25 C58.64630389 79.33737645 56.78932459 79.35698153 54.93359375 79.34765625 C53.80888672 79.34443359 52.68417969 79.34121094 51.52539062 79.33789062 C50.34138672 79.32951172 49.15738281 79.32113281 47.9375 79.3125 C46.74962891 79.30798828 45.56175781 79.30347656 44.33789062 79.29882812 C41.39187774 79.28699675 38.44596319 79.27051287 35.5 79.25 C34.6367399 75.53111134 34.38278444 72.10703512 34.40234375 68.29296875 C34.40556641 67.18115234 34.40878906 66.06933594 34.41210938 64.92382812 C34.42467773 63.1980957 34.42467773 63.1980957 34.4375 61.4375 C34.44201172 60.26767578 34.44652344 59.09785156 34.45117188 57.89257812 C34.46293057 55.01169677 34.48086526 52.13084181 34.5 49.25 C23.61 48.755 23.61 48.755 12.5 48.25 C12.51160156 50.32023437 12.52320313 52.39046875 12.53515625 54.5234375 C12.5421086 56.52571493 12.5490259 58.52799265 12.55493164 60.53027344 C12.5599643 61.92318477 12.56679098 63.3160908 12.57543945 64.70898438 C12.58755152 66.70961246 12.59270412 68.71027888 12.59765625 70.7109375 C12.60551147 72.51763916 12.60551147 72.51763916 12.61352539 74.36083984 C12.5 77.25 12.5 77.25 11.5 79.25 C3.25 79.25 -5 79.25 -13.5 79.25 C-13.5 53.51 -13.5 27.77 -13.5 1.25 C-9.04308098 -0.23563967 -4.66874835 0.02499999 0 0 Z " fill="#020202" transform="translate(506.5,455.75)"/>
<path d="M0 0 C0.96292969 -0.00322266 1.92585938 -0.00644531 2.91796875 -0.00976562 C7.97192882 0.02846929 12.13907975 0.35488591 16.875 2.3125 C18.20606622 2.65477417 19.53900079 2.99001743 20.875 3.3125 C21.865 3.6425 22.855 3.9725 23.875 4.3125 C23.875 4.9725 23.875 5.6325 23.875 6.3125 C24.865 6.6425 25.855 6.9725 26.875 7.3125 C26.875 7.9725 26.875 8.6325 26.875 9.3125 C27.4525 9.51875 28.03 9.725 28.625 9.9375 C31.81101596 11.88450975 33.0906075 14.05136888 34.875 17.3125 C35.25971033 19.6379147 35.6000859 21.97156476 35.875 24.3125 C27.89285939 26.14126132 20.05588206 27.7658512 11.875 28.3125 C11.38 26.8275 11.38 26.8275 10.875 25.3125 C10.215 25.3125 9.555 25.3125 8.875 25.3125 C8.875 24.6525 8.875 23.9925 8.875 23.3125 C8.215 23.3125 7.555 23.3125 6.875 23.3125 C6.50375 22.8175 6.1325 22.3225 5.75 21.8125 C3.25940651 19.82002521 1.1215969 19.82736853 -2 19.9765625 C-6.52456155 20.69184245 -9.65993577 22.38501137 -12.44921875 26.0546875 C-16.44698501 33.48913002 -16.34557321 42.81992055 -14.546875 50.9140625 C-13.3012853 54.45206729 -11.73107344 57.62088804 -9.125 60.3125 C-1.51989942 62.00823189 6.49084126 61.77388625 13.875 59.3125 C13.38 55.8475 13.38 55.8475 12.875 52.3125 C12.03195313 52.39628906 11.18890625 52.48007812 10.3203125 52.56640625 C8.67675781 52.71916016 8.67675781 52.71916016 7 52.875 C5.36417969 53.03162109 5.36417969 53.03162109 3.6953125 53.19140625 C0.875 53.3125 0.875 53.3125 -1.125 52.3125 C-2.75324645 46.68764862 -1.78640616 41.03111938 -1.125 35.3125 C2.03479489 34.38184383 4.8755671 34.1837154 8.1640625 34.1796875 C9.18886719 34.17839844 10.21367187 34.17710937 11.26953125 34.17578125 C12.86861328 34.18158203 12.86861328 34.18158203 14.5 34.1875 C15.54285156 34.18363281 16.58570313 34.17976563 17.66015625 34.17578125 C24.12561266 34.18385298 30.45696671 34.52745776 36.875 35.3125 C36.99875079 40.0812841 37.08940646 44.84913077 37.1496582 49.61914062 C37.17477772 51.24105105 37.20888028 52.86284854 37.25219727 54.484375 C37.31296853 56.81799171 37.34123294 59.15011048 37.36328125 61.484375 C37.38908768 62.20743835 37.4148941 62.93050171 37.44148254 63.67547607 C37.44361058 67.50946601 37.17826987 68.99867278 34.46948242 71.80175781 C31.875 73.3125 31.875 73.3125 29.875 73.3125 C29.875 73.9725 29.875 74.6325 29.875 75.3125 C28.62836669 75.82083591 27.37750613 76.31881145 26.125 76.8125 C25.42890625 77.0909375 24.7328125 77.369375 24.015625 77.65625 C21.875 78.3125 21.875 78.3125 17.875 78.3125 C17.875 78.9725 17.875 79.6325 17.875 80.3125 C13.79141017 81.07919618 9.93022375 81.4407471 5.77734375 81.4453125 C4.64619141 81.44660156 3.51503906 81.44789063 2.34960938 81.44921875 C0.59874023 81.44341797 0.59874023 81.44341797 -1.1875 81.4375 C-2.35861328 81.44136719 -3.52972656 81.44523438 -4.73632812 81.44921875 C-5.86619141 81.44792969 -6.99605469 81.44664062 -8.16015625 81.4453125 C-9.1850415 81.44418457 -10.20992676 81.44305664 -11.26586914 81.44189453 C-13.99052609 81.31858583 -16.47188208 80.92576518 -19.125 80.3125 C-19.125 79.6525 -19.125 78.9925 -19.125 78.3125 C-19.8675 78.374375 -20.61 78.43625 -21.375 78.5 C-24.60019908 78.28010006 -25.82223426 77.52997812 -28.125 75.3125 C-28.125 74.6525 -28.125 73.9925 -28.125 73.3125 C-28.74375 73.085625 -29.3625 72.85875 -30 72.625 C-32.74760139 70.92795208 -33.05710179 69.28735929 -34.125 66.3125 C-34.785 65.9825 -35.445 65.6525 -36.125 65.3125 C-36.84199294 64.00554042 -37.50214266 62.6668526 -38.125 61.3125 C-38.47820312 60.68214844 -38.83140625 60.05179688 -39.1953125 59.40234375 C-42.07969744 53.5160619 -42.49875429 48.13095595 -42.5 41.6875 C-42.5014502 40.88820068 -42.50290039 40.08890137 -42.50439453 39.26538086 C-42.38043538 32.5137856 -41.36591063 26.33133403 -38.125 20.3125 C-38.125 19.6525 -38.125 18.9925 -38.125 18.3125 C-36.48011706 16.62433067 -34.81162458 14.95896685 -33.125 13.3125 C-32.465 12.3225 -31.805 11.3325 -31.125 10.3125 C-30.465 10.3125 -29.805 10.3125 -29.125 10.3125 C-28.795 9.6525 -28.465 8.9925 -28.125 8.3125 C-26.33984375 7.12890625 -26.33984375 7.12890625 -24.0625 5.875 C-23.32902344 5.46378906 -22.59554687 5.05257813 -21.83984375 4.62890625 C-14.19357922 0.92129309 -8.45462354 -0.14262185 0 0 Z " fill="#0C0C0C" transform="translate(166.125,454.6875)"/>
<path d="M0 0 C0.91136719 0.22558594 1.82273437 0.45117188 2.76171875 0.68359375 C4.20998047 1.05677734 4.20998047 1.05677734 5.6875 1.4375 C6.66074219 1.68371094 7.63398437 1.92992187 8.63671875 2.18359375 C11 3 11 3 12 5 C12.598125 5.268125 13.19625 5.53625 13.8125 5.8125 C16.68403854 7.37133521 18.14102601 9.34432286 20 12 C20 12.66 20 13.32 20 14 C20.66 14 21.32 14 22 14 C28.99140245 23.72557296 30.10856931 37.44683794 29 49 C27.75125982 55.11792849 24.89476984 60.50991926 22 66 C21.34 66 20.68 66 20 66 C19.63261719 66.87785156 19.63261719 66.87785156 19.2578125 67.7734375 C16.6538138 72.38300042 11.6987337 75.9435562 6.8046875 77.859375 C4.89209435 78.33934134 2.94506784 78.67582203 1 79 C0.19884766 79.17442627 -0.60230469 79.34885254 -1.42773438 79.52856445 C-5.76493898 80.32347164 -10.10216178 80.18447535 -14.5 80.1875 C-15.90572266 80.20586914 -15.90572266 80.20586914 -17.33984375 80.22460938 C-22.01595092 80.23455854 -25.75723678 80.19481405 -30 78 C-31.485 77.505 -31.485 77.505 -33 77 C-33 76.34 -33 75.68 -33 75 C-33.721875 74.938125 -34.44375 74.87625 -35.1875 74.8125 C-41.83222928 72.89291154 -45.72767041 65.72881811 -49 60 C-54.84750066 48.64685257 -54.42044432 35.68433185 -50.9140625 23.625 C-48.69377331 17.2487849 -46.68887647 12.93845294 -41 9 C-40.55398438 8.52304687 -40.10796875 8.04609375 -39.6484375 7.5546875 C-30.43004618 -1.13943512 -11.85337567 -3.24269797 0 0 Z M-18 20 C-18 20.66 -18 21.32 -18 22 C-18.61875 22.061875 -19.2375 22.12375 -19.875 22.1875 C-22.27117929 22.81740446 -22.27117929 22.81740446 -23.125 25.5 C-23.41375 26.325 -23.7025 27.15 -24 28 C-24.99 28.495 -24.99 28.495 -26 29 C-27.72487541 33.79132057 -28.20705455 37.92716361 -28 43 C-27.34 43 -26.68 43 -26 43 C-26.33 43.99 -26.66 44.98 -27 46 C-26.56726564 49.57727068 -25.767698 52.95313909 -23.625 55.875 C-21.82126931 57.12373663 -20.00093716 58.10302817 -18 59 C-18 59.33 -18 59.66 -18 60 C-10.24666755 60.99872882 -10.24666755 60.99872882 -3.09375 58.7578125 C2.38413005 51.50964194 2.6194985 41.6993406 2 33 C1.01101401 27.4257153 -0.59812441 24.58292199 -5 21 C-9.54284951 18.61500401 -13.15247808 18.38415936 -18 20 Z " fill="#0E0E0E" transform="translate(640,456)"/>
<path d="M0 0 C1.2098481 -0.00143509 1.2098481 -0.00143509 2.44413757 -0.00289917 C4.15310748 -0.00358036 5.86207997 -0.00173032 7.57104492 0.00244141 C10.17828247 0.00776971 12.7853461 0.00250518 15.39257812 -0.00390625 C17.0533858 -0.00324505 18.71419336 -0.00196302 20.375 0 C21.1522493 -0.00202423 21.9294986 -0.00404846 22.7303009 -0.00613403 C26.58379533 0.01041626 30.13792838 0.23950858 33.88671875 1.1328125 C35.08296875 1.2978125 36.27921875 1.4628125 37.51171875 1.6328125 C40.88671875 2.1328125 40.88671875 2.1328125 43.88671875 3.1328125 C43.88671875 3.7928125 43.88671875 4.4528125 43.88671875 5.1328125 C44.62921875 5.3803125 45.37171875 5.6278125 46.13671875 5.8828125 C49.11694962 7.23746289 50.78591127 8.6429666 52.88671875 11.1328125 C52.88671875 11.7928125 52.88671875 12.4528125 52.88671875 13.1328125 C53.54671875 13.1328125 54.20671875 13.1328125 54.88671875 13.1328125 C58.52566589 19.56475229 60.46095806 24.77742959 60.88671875 32.1328125 C61.07234375 32.9990625 61.25796875 33.8653125 61.44921875 34.7578125 C62.58500275 40.92349708 61.54242387 46.62250094 60.32421875 52.6796875 C59.79893195 55.20974026 59.79893195 55.20974026 59.88671875 58.1328125 C59.22671875 58.1328125 58.56671875 58.1328125 57.88671875 58.1328125 C57.80421875 58.8340625 57.72171875 59.5353125 57.63671875 60.2578125 C56.10301927 66.13699383 52.60884513 69.55931146 47.88671875 73.1328125 C47.55671875 73.7928125 47.22671875 74.4528125 46.88671875 75.1328125 C45.89671875 75.1328125 44.90671875 75.1328125 43.88671875 75.1328125 C43.88671875 75.7928125 43.88671875 76.4528125 43.88671875 77.1328125 C32.43655091 79.50052409 21.21210872 79.36260405 9.57421875 79.2578125 C3.07734375 79.2165625 -3.41953125 79.1753125 -10.11328125 79.1328125 C-10.11328125 53.3928125 -10.11328125 27.6528125 -10.11328125 1.1328125 C-6.93105708 -0.45829958 -3.49379799 -0.00902854 0 0 Z M14.88671875 21.1328125 C14.86207026 26.52628238 14.84388344 31.91971975 14.83178711 37.31323242 C14.82674644 39.14950125 14.81991398 40.98576604 14.8112793 42.82202148 C14.79920203 45.45557651 14.79348794 48.08907866 14.7890625 50.72265625 C14.78390121 51.54869858 14.77873993 52.37474091 14.77342224 53.22581482 C14.7732267 55.19517618 14.82467723 57.16442864 14.88671875 59.1328125 C16.60767098 60.85376473 18.85835789 60.30481011 21.19921875 60.3203125 C22.16472656 60.33449219 23.13023437 60.34867188 24.125 60.36328125 C26.93227755 60.12901056 28.55163919 59.68054422 30.88671875 58.1328125 C31.69200764 56.08280379 31.69200764 56.08280379 31.88671875 54.1328125 C32.54671875 54.1328125 33.20671875 54.1328125 33.88671875 54.1328125 C37.28844673 44.77806056 37.083963 34.23547802 32.88671875 25.1328125 C30.09405112 21.72215959 27.14844488 21.08802698 22.88671875 20.1328125 C19.69355366 19.9150967 17.95056341 20.11153095 14.88671875 21.1328125 Z " fill="#111111" transform="translate(893.11328125,455.8671875)"/>
<path d="M0 0 C1.00023193 0.00523682 2.00046387 0.01047363 3.03100586 0.01586914 C4.1105957 0.0190918 5.19018555 0.02231445 6.30249023 0.02563477 C8.00695312 0.03820312 8.00695312 0.03820312 9.74584961 0.05102539 C11.45611328 0.05779297 11.45611328 0.05779297 13.20092773 0.06469727 C16.02845312 0.07652792 18.85587601 0.09301129 21.68334961 0.11352539 C22.79081735 5.42242513 22.77989547 10.50414125 22.71069336 15.89477539 C22.69805066 17.80753402 22.68568944 19.72029453 22.67358398 21.63305664 C22.64875801 24.62839702 22.62073706 27.62363826 22.58740234 30.61889648 C22.55713259 33.52336241 22.53940907 36.42770173 22.52319336 39.33227539 C22.50973373 40.22305786 22.49627411 41.11384033 22.48240662 42.03161621 C22.4633505 46.7752544 22.68689471 50.70954337 24.68334961 55.11352539 C28.82549726 58.95258907 32.11977264 59.54446534 37.53491211 59.44946289 C40.02149656 59.0606515 41.56558018 58.4826533 43.68334961 57.11352539 C46.34641289 50.64532261 45.95302736 42.95139815 45.87866211 36.07446289 C45.87441727 34.56416 45.87441727 34.56416 45.87008667 33.02334595 C45.8589979 29.84494538 45.83391504 26.66683907 45.80834961 23.48852539 C45.79830518 21.31795658 45.78918191 19.1473833 45.78100586 16.97680664 C45.75909577 11.68894784 45.72573297 6.40125765 45.68334961 1.11352539 C49.06519731 0.33604597 52.0489258 0.02418781 55.51147461 0.19946289 C56.83405273 0.26520508 56.83405273 0.26520508 58.18334961 0.33227539 C59.54459961 0.40961914 59.54459961 0.40961914 60.93334961 0.48852539 C62.31780273 0.55426758 62.31780273 0.55426758 63.73022461 0.62133789 C70.55233253 0.98250831 70.55233253 0.98250831 71.68334961 2.11352539 C71.7922695 3.66140905 71.83239681 5.2142051 71.84448242 6.76586914 C71.85408997 7.75780273 71.86369751 8.74973633 71.87359619 9.77172852 C71.87784607 10.85389648 71.88209595 11.93606445 71.88647461 13.05102539 C71.89217468 14.16026367 71.89787476 15.26950195 71.90374756 16.41235352 C71.91321924 18.76960287 71.91974009 21.12686561 71.92358398 23.48413086 C71.93323377 27.070472 71.96421389 30.65622655 71.99584961 34.24243164 C72.00238502 36.53279282 72.00763337 38.82315811 72.01147461 41.11352539 C72.02382141 42.17949951 72.03616821 43.24547363 72.04888916 44.34375 C72.0247963 52.50944995 70.40301984 58.87857627 66.68334961 66.11352539 C66.02334961 66.11352539 65.36334961 66.11352539 64.68334961 66.11352539 C64.68334961 67.43352539 64.68334961 68.75352539 64.68334961 70.11352539 C60.67686363 75.28811491 55.93252284 77.86845317 49.56616211 78.92211914 C47.68334961 79.11352539 47.68334961 79.11352539 45.68334961 79.11352539 C45.35334961 79.77352539 45.02334961 80.43352539 44.68334961 81.11352539 C43.69334961 80.61852539 43.69334961 80.61852539 42.68334961 80.11352539 C41.27793895 80.06487656 39.870139 80.07656227 38.46459961 80.12133789 C14.9079623 80.64651445 14.9079623 80.64651445 6.43334961 73.11352539 C4.68334961 71.11352539 4.68334961 71.11352539 4.68334961 69.11352539 C4.02334961 69.11352539 3.36334961 69.11352539 2.68334961 69.11352539 C2.68334961 68.12352539 2.68334961 67.13352539 2.68334961 66.11352539 C2.02334961 66.11352539 1.36334961 66.11352539 0.68334961 66.11352539 C-0.00011721 64.45367741 -0.66253354 62.78515734 -1.31665039 61.11352539 C-1.65696289 60.30399414 -1.99727539 59.49446289 -2.34790039 58.66040039 C-3.72485758 53.61896035 -3.7909899 48.69459472 -3.94165039 43.48852539 C-3.97887207 42.38637695 -4.01609375 41.28422852 -4.05444336 40.14868164 C-4.2737786 33.13804004 -4.4133517 26.12755839 -4.44165039 19.11352539 C-4.44632324 18.33283691 -4.45099609 17.55214844 -4.45581055 16.74780273 C-4.40936308 0.21607691 -4.40936308 0.21607691 0 0 Z " fill="#0D0D0D" transform="translate(691.316650390625,455.886474609375)"/>
<path d="M0 0 C1.8569751 -0.00472824 1.8569751 -0.00472824 3.75146484 -0.009552 C5.11295609 -0.00776222 6.47444701 -0.00571127 7.8359375 -0.00341797 C9.22216814 -0.00409106 10.60839867 -0.00506113 11.99462891 -0.00631714 C14.90333172 -0.00779387 17.81200387 -0.00564037 20.72070312 -0.00097656 C24.45690348 0.00472073 28.19303202 0.00144159 31.92922974 -0.00454903 C34.79273016 -0.00815532 37.65621343 -0.00701574 40.51971436 -0.00442123 C41.89768482 -0.00375215 43.27565682 -0.00457973 44.65362549 -0.00690079 C46.57637504 -0.00942839 48.49913002 -0.0048957 50.421875 0 C52.06615479 0.00119339 52.06615479 0.00119339 53.74365234 0.00241089 C56.2109375 0.12939453 56.2109375 0.12939453 57.2109375 1.12939453 C57.47543317 3.94774286 57.67991002 6.74233829 57.8359375 9.56689453 C57.8875 10.35644531 57.9390625 11.14599609 57.9921875 11.95947266 C58.33543019 17.88040914 58.33543019 17.88040914 57.2109375 20.12939453 C56.20192383 20.12415771 55.19291016 20.1189209 54.15332031 20.11352539 C50.40365488 20.09540191 46.65399332 20.08393565 42.90429688 20.07446289 C41.28254546 20.06943948 39.66079855 20.0626196 38.0390625 20.05395508 C35.70571781 20.04180224 33.3724331 20.03614625 31.0390625 20.03173828 C30.31599915 20.026577 29.59293579 20.02141571 28.84796143 20.01609802 C25.49081 20.01572535 22.41987642 20.08031835 19.2109375 21.12939453 C18.8809375 23.76939453 18.5509375 26.40939453 18.2109375 29.12939453 C30.0909375 29.12939453 41.9709375 29.12939453 54.2109375 29.12939453 C54.2109375 34.73939453 54.2109375 40.34939453 54.2109375 46.12939453 C50.37284475 47.08891772 47.40881711 47.24429751 43.4765625 47.22705078 C42.18105469 47.22382813 40.88554687 47.22060547 39.55078125 47.21728516 C38.18749933 47.20893051 36.82421808 47.20046557 35.4609375 47.19189453 C34.08203285 47.18687621 32.70312646 47.18231388 31.32421875 47.17822266 C27.95308091 47.16643546 24.58203122 47.14998088 21.2109375 47.12939453 C18.38724511 51.36493312 19.2109375 53.25645707 19.2109375 59.12939453 C32.0809375 59.12939453 44.9509375 59.12939453 58.2109375 59.12939453 C59.6827436 62.07300672 59.34274523 64.72987655 59.3359375 68.00439453 C59.33980469 69.85677734 59.33980469 69.85677734 59.34375 71.74658203 C59.2109375 75.12939453 59.2109375 75.12939453 58.2109375 79.12939453 C36.7609375 79.12939453 15.3109375 79.12939453 -6.7890625 79.12939453 C-7.79129296 75.12047267 -7.8802921 72.01542376 -7.82666016 67.89819336 C-7.81865891 67.17745132 -7.81065765 66.45670929 -7.80241394 65.71412659 C-7.77459167 63.33812717 -7.73909859 60.96231473 -7.703125 58.58642578 C-7.68135285 56.93544423 -7.65990343 55.28445839 -7.63876343 53.63346863 C-7.59331212 50.17770797 -7.54408843 46.72202706 -7.4921875 43.26635742 C-7.42580461 38.82747356 -7.36859808 34.38852741 -7.31415749 29.94948292 C-7.27141686 26.54293009 -7.22396909 23.13645556 -7.17506027 19.72998619 C-7.15210135 18.09246451 -7.13059942 16.45492176 -7.11055374 14.81736183 C-7.08189477 12.53561184 -7.0469454 10.25404511 -7.01025391 7.97241211 C-6.99169342 6.67209549 -6.97313293 5.37177887 -6.95401001 4.03205872 C-6.66679623 -1.02218639 -4.55231407 0.00330399 0 0 Z M18.2109375 47.12939453 C19.2109375 49.12939453 19.2109375 49.12939453 19.2109375 49.12939453 Z " fill="#040404" transform="translate(322.7890625,455.87060546875)"/>
<path d="M0 0 C1.6097168 0.00966797 1.6097168 0.00966797 3.25195312 0.01953125 C4.9312793 0.04466797 4.9312793 0.04466797 6.64453125 0.0703125 C7.77568359 0.07933594 8.90683594 0.08835937 10.07226562 0.09765625 C12.86739953 0.12124388 15.6621097 0.1541595 18.45703125 0.1953125 C19.11703125 1.8453125 19.77703125 3.4953125 20.45703125 5.1953125 C21.11703125 5.1953125 21.77703125 5.1953125 22.45703125 5.1953125 C22.86953125 6.2678125 23.28203125 7.3403125 23.70703125 8.4453125 C25.1187744 11.76823623 26.85744239 13.67696079 29.45703125 16.1953125 C30.51715068 18.16410573 31.53173974 20.15967117 32.45703125 22.1953125 C33.11703125 22.1953125 33.77703125 22.1953125 34.45703125 22.1953125 C35.90713402 20.22731588 37.1858995 18.27832839 38.45703125 16.1953125 C38.95976562 15.37546875 39.4625 14.555625 39.98046875 13.7109375 C42.93603155 8.9631124 42.93603155 8.9631124 45.38671875 3.953125 C46.45703125 2.1953125 46.45703125 2.1953125 48.17578125 1.59375 C50.83032454 1.13011401 53.33194685 1.06562847 56.02734375 1.0625 C57.08824219 1.06121094 58.14914062 1.05992187 59.2421875 1.05859375 C60.34433594 1.06246094 61.44648438 1.06632812 62.58203125 1.0703125 C63.69191406 1.06644531 64.80179687 1.06257813 65.9453125 1.05859375 C67.53279297 1.06052734 67.53279297 1.06052734 69.15234375 1.0625 C70.12187988 1.06362793 71.09141602 1.06475586 72.09033203 1.06591797 C74.45703125 1.1953125 74.45703125 1.1953125 76.45703125 2.1953125 C76.45703125 2.8553125 76.45703125 3.5153125 76.45703125 4.1953125 C75.12369792 5.52864583 73.79036458 6.86197917 72.45703125 8.1953125 C71.92078125 9.1028125 71.38453125 10.0103125 70.83203125 10.9453125 C70.37828125 11.6878125 69.92453125 12.4303125 69.45703125 13.1953125 C68.79703125 13.1953125 68.13703125 13.1953125 67.45703125 13.1953125 C67.45703125 14.5153125 67.45703125 15.8353125 67.45703125 17.1953125 C66.79703125 17.1953125 66.13703125 17.1953125 65.45703125 17.1953125 C65.37453125 17.7109375 65.29203125 18.2265625 65.20703125 18.7578125 C64.135629 22.23986982 62.3217952 25.06732135 60.45703125 28.1953125 C59.79703125 28.1953125 59.13703125 28.1953125 58.45703125 28.1953125 C58.21082031 28.91460937 57.96460938 29.63390625 57.7109375 30.375 C56.31811991 33.50775484 54.59966761 35.70296372 52.39453125 38.3203125 C48.02849474 43.51534328 47.33450624 46.64165879 47.2109375 53.41796875 C47.17801838 54.8574284 47.14480643 56.29688137 47.11132812 57.73632812 C47.06379698 60.00329286 47.01931719 62.27022688 46.98022461 64.53735352 C46.94061123 66.72700059 46.88906534 68.91611383 46.8359375 71.10546875 C46.79835327 73.07205444 46.79835327 73.07205444 46.76000977 75.07836914 C46.45703125 78.1953125 46.45703125 78.1953125 44.45703125 80.1953125 C42.02685547 80.33056641 42.02685547 80.33056641 39.01171875 80.171875 C37.39716797 80.09453125 37.39716797 80.09453125 35.75 80.015625 C34.05810547 79.91894531 34.05810547 79.91894531 32.33203125 79.8203125 C30.62853516 79.73523438 30.62853516 79.73523438 28.890625 79.6484375 C26.07881495 79.50666556 23.26785844 79.35522689 20.45703125 79.1953125 C20.44768555 78.22182861 20.43833984 77.24834473 20.42871094 76.24536133 C20.38872033 72.6200653 20.322938 68.99560987 20.24951172 65.37084961 C20.22135431 63.80455353 20.20011372 62.23811675 20.18603516 60.67163086 C20.16453158 58.41447184 20.11784936 56.15899511 20.06640625 53.90234375 C20.06517761 53.20631546 20.06394897 52.51028717 20.06268311 51.79316711 C19.91805458 46.95006881 18.68215395 44.72070792 15.45703125 41.1953125 C14.76742163 39.20310693 14.09624068 37.20425644 13.45703125 35.1953125 C12.79703125 34.8653125 12.13703125 34.5353125 11.45703125 34.1953125 C11.16828125 33.5971875 10.87953125 32.9990625 10.58203125 32.3828125 C9.53923585 30.06785319 9.53923585 30.06785319 7.45703125 28.2578125 C4.56670044 25.27715886 3.749002 22.07122474 2.45703125 18.1953125 C1.79703125 18.1953125 1.13703125 18.1953125 0.45703125 18.1953125 C0.45703125 17.5353125 0.45703125 16.8753125 0.45703125 16.1953125 C-0.20296875 15.8653125 -0.86296875 15.5353125 -1.54296875 15.1953125 C-4.54296875 10.6953125 -4.54296875 10.6953125 -4.54296875 8.1953125 C-5.53296875 7.8653125 -6.52296875 7.5353125 -7.54296875 7.1953125 C-7.87296875 5.5453125 -8.20296875 3.8953125 -8.54296875 2.1953125 C-5.14399202 -0.07067198 -3.97977702 -0.04211404 0 0 Z " fill="#0C0B0C" transform="translate(402.54296875,455.8046875)"/>
<path d="M0 0 C-1.73465118 3.77447247 -3.98353683 6.13435999 -7 9 C-7.66 9.66 -8.32 10.32 -9 11 C-3.06 11.33 2.88 11.66 9 12 C9.09765625 20.49609375 9.09765625 20.49609375 9 23 C7.34920558 24.65079442 5.36263821 24.22549447 3.08984375 24.31640625 C2.10048828 24.35830078 1.11113281 24.40019531 0.09179688 24.44335938 C-0.94912109 24.48267578 -1.99003906 24.52199219 -3.0625 24.5625 C-4.10728516 24.60568359 -5.15207031 24.64886719 -6.22851562 24.69335938 C-8.81886884 24.79981225 -11.40932186 24.9018276 -14 25 C-13.67 25.99 -13.34 26.98 -13 28 C-6.4 28.33 0.2 28.66 7 29 C7 32.63 7 36.26 7 40 C-0.26 40.33 -7.52 40.66 -15 41 C-14.67 42.98 -14.34 44.96 -14 47 C-6.41 47 1.18 47 9 47 C10 55 10 55 9 59 C-3.87 59 -16.74 59 -30 59 C-30.16541802 52.46726052 -30.32779422 45.93459914 -30.48217773 39.40161133 C-30.53568392 37.17728264 -30.59101963 34.9529972 -30.64819336 32.72875977 C-30.7298646 29.53932018 -30.80504388 26.34978501 -30.87890625 23.16015625 C-30.91945885 21.65860741 -30.91945885 21.65860741 -30.96083069 20.12672424 C-30.98092697 19.20584518 -31.00102325 18.28496613 -31.02172852 17.33618164 C-31.04171402 16.52121719 -31.06169952 15.70625275 -31.08229065 14.86659241 C-31 13 -31 13 -30 12 C-27.98405418 11.76572222 -25.961526 11.58663876 -23.9375 11.4375 C-22.83277344 11.35371094 -21.72804688 11.26992188 -20.58984375 11.18359375 C-19.73519531 11.12300781 -18.88054688 11.06242188 -18 11 C-17.62875 9.6696875 -17.62875 9.6696875 -17.25 8.3125 C-13.72328484 -1.03329517 -9.23330733 -0.65330005 0 0 Z " fill="#070707" transform="translate(617,564)"/>
<path d="M0 0 C0.74362793 0.01047363 1.48725586 0.02094727 2.25341797 0.03173828 C3.46191406 0.04140625 3.46191406 0.04140625 4.69482422 0.05126953 C5.95746094 0.07640625 5.95746094 0.07640625 7.24560547 0.10205078 C8.51984375 0.11558594 8.51984375 0.11558594 9.81982422 0.12939453 C11.9202043 0.15299431 14.02043991 0.18886595 16.12060547 0.22705078 C16.46671875 1.42587891 16.46671875 1.42587891 16.81982422 2.64892578 C18.78757912 9.27551542 21.03060231 15.62272664 23.75341797 21.97314453 C25.37045143 25.82168418 26.88690234 29.70051076 28.37060547 33.60205078 C28.62890137 34.26825439 28.88719727 34.93445801 29.15332031 35.62084961 C30.65048973 39.58819896 31.41054181 42.9666688 32.12060547 47.22705078 C26.51060547 47.22705078 20.90060547 47.22705078 15.12060547 47.22705078 C14.46060547 45.57705078 13.80060547 43.92705078 13.12060547 42.22705078 C11.2832272 39.9548823 11.2832272 39.9548823 8.51904297 40.03173828 C7.52130859 40.05494141 6.52357422 40.07814453 5.49560547 40.10205078 C4.49271484 40.12009766 3.48982422 40.13814453 2.45654297 40.15673828 C1.30025391 40.19154297 1.30025391 40.19154297 0.12060547 40.22705078 C-0.86939453 42.53705078 -1.85939453 44.84705078 -2.87939453 47.22705078 C-8.15939453 47.22705078 -13.43939453 47.22705078 -18.87939453 47.22705078 C-19.87939453 44.22705078 -19.87939453 44.22705078 -18.87939453 41.22705078 C-18.21939453 41.22705078 -17.55939453 41.22705078 -16.87939453 41.22705078 C-16.75564453 40.71142578 -16.63189453 40.19580078 -16.50439453 39.66455078 C-15.29815961 34.96023459 -14.09238923 30.55431923 -11.87939453 26.22705078 C-8.82412497 19.37195016 -6.71687172 12.38605496 -4.80908203 5.13330078 C-3.29429021 0.39798518 -3.29429021 0.39798518 0 0 Z M5.12060547 21.22705078 C3.74507053 24.65374659 3.74507053 24.65374659 3.12060547 28.22705078 C5.43060547 28.22705078 7.74060547 28.22705078 10.12060547 28.22705078 C9.46060547 25.91705078 8.80060547 23.60705078 8.12060547 21.22705078 C7.13060547 21.22705078 6.14060547 21.22705078 5.12060547 21.22705078 Z " fill="#1B1B1B" transform="translate(498.87939453125,575.77294921875)"/>
<path d="M0 0 C1.46373047 0.02707031 1.46373047 0.02707031 2.95703125 0.0546875 C3.69308594 0.07789063 4.42914063 0.10109375 5.1875 0.125 C5.1875 0.785 5.1875 1.445 5.1875 2.125 C6.239375 2.186875 7.29125 2.24875 8.375 2.3125 C12.86525398 3.26943937 14.33733129 4.60420336 17.1875 8.125 C17.6825 9.61 17.6825 9.61 18.1875 11.125 C18.8475 11.455 19.5075 11.785 20.1875 12.125 C20.8125 15.1875 20.8125 15.1875 21.1875 18.125 C20.23037109 18.19847656 20.23037109 18.19847656 19.25390625 18.2734375 C18.42761719 18.34820313 17.60132813 18.42296875 16.75 18.5 C15.92628906 18.56960938 15.10257812 18.63921875 14.25390625 18.7109375 C13.57199219 18.84757813 12.89007813 18.98421875 12.1875 19.125 C11.8575 19.785 11.5275 20.445 11.1875 21.125 C9.8675 20.795 8.5475 20.465 7.1875 20.125 C7.1875 19.465 7.1875 18.805 7.1875 18.125 C6.1975 17.795 5.2075 17.465 4.1875 17.125 C3.8575 16.465 3.5275 15.805 3.1875 15.125 C-1.2675 15.62 -1.2675 15.62 -5.8125 16.125 C-5.8125 16.785 -5.8125 17.445 -5.8125 18.125 C-6.4725 18.125 -7.1325 18.125 -7.8125 18.125 C-7.86691656 20.02051022 -7.90548035 21.9164792 -7.9375 23.8125 C-7.96070313 24.86824219 -7.98390625 25.92398438 -8.0078125 27.01171875 C-7.80900427 30.18072196 -7.24230938 32.30565755 -5.8125 35.125 C-2.85972026 37.19194582 -1.57526389 37.125 2.1875 37.125 C4.97934097 34.25339214 6.36773033 32.0002748 7.1875 28.125 C8.77218677 28.57863171 10.35519924 29.03811452 11.9375 29.5 C12.81921875 29.75523437 13.7009375 30.01046875 14.609375 30.2734375 C16.94830572 31.0459934 19.02192562 31.96125676 21.1875 33.125 C20.68107808 37.48022853 19.80338503 40.56739635 17.1875 44.125 C16.5275 44.125 15.8675 44.125 15.1875 44.125 C14.93742187 44.74761719 14.68734375 45.37023437 14.4296875 46.01171875 C12.54203554 49.22310149 10.35068875 49.63106687 6.890625 50.65234375 C-1.83386872 52.17786939 -9.47281824 50.17624672 -17 45.875 C-22.51036176 40.55465071 -24.88565757 33.29455235 -25.125 25.8125 C-25.04469592 20.4832293 -23.84472474 16.02411322 -21.8125 11.125 C-21.1525 11.125 -20.4925 11.125 -19.8125 11.125 C-19.4825 9.805 -19.1525 8.485 -18.8125 7.125 C-18.1525 7.125 -17.4925 7.125 -16.8125 7.125 C-16.8125 6.465 -16.8125 5.805 -16.8125 5.125 C-6.48980126 -0.15638075 -6.48980126 -0.15638075 0 0 Z " fill="#1D1D1D" transform="translate(452.8125,573.875)"/>
<path d="M0 0 C11.88 0 23.76 0 36 0 C36 3.63 36 7.26 36 11 C34.45049732 12.54950268 32.90009406 12.21655193 30.74609375 12.31640625 C29.46508789 12.37924805 29.46508789 12.37924805 28.15820312 12.44335938 C27.26037109 12.48267578 26.36253906 12.52199219 25.4375 12.5625 C24.53580078 12.60568359 23.63410156 12.64886719 22.70507812 12.69335938 C20.47021515 12.79978142 18.23523692 12.90179988 16 13 C16 13.99 16 14.98 16 16 C17.71509766 16.07347656 17.71509766 16.07347656 19.46484375 16.1484375 C20.95575473 16.22345189 22.44663892 16.29900028 23.9375 16.375 C25.06961914 16.42140625 25.06961914 16.42140625 26.22460938 16.46875 C28.15507395 16.5726315 30.07942081 16.77895614 32 17 C33.1898306 19.3796612 33.13349966 20.91485735 33.125 23.5625 C33.12886719 24.77099609 33.12886719 24.77099609 33.1328125 26.00390625 C33 28 33 28 32 29 C29.30764224 29.23678716 26.63501844 29.42198025 23.9375 29.5625 C22.79958008 29.62727539 22.79958008 29.62727539 21.63867188 29.69335938 C19.75934562 29.79973633 17.87969756 29.90039934 16 30 C16.01160156 31.14339844 16.02320313 32.28679688 16.03515625 33.46484375 C16.04453288 34.95572754 16.05363321 36.44661309 16.0625 37.9375 C16.07087891 38.69224609 16.07925781 39.44699219 16.08789062 40.22460938 C16.09652441 42.14994313 16.05224333 44.07535581 16 46 C15 47 15 47 11.62109375 47.09765625 C10.22652923 47.09098369 8.83198257 47.07902532 7.4375 47.0625 C6.37112305 47.05573242 6.37112305 47.05573242 5.28320312 47.04882812 C3.52209987 47.03700864 1.76103964 47.01907263 0 47 C-0.1680197 40.62810114 -0.32794807 34.25603653 -0.48217773 27.88378906 C-0.53563881 25.71479666 -0.59097127 23.54584956 -0.64819336 21.37695312 C-0.72998976 18.26442231 -0.80511587 15.1517921 -0.87890625 12.0390625 C-0.91945885 10.57806625 -0.91945885 10.57806625 -0.96083069 9.08755493 C-0.98092697 8.18677216 -1.00102325 7.28598938 -1.02172852 6.35791016 C-1.04171402 5.56293121 -1.06169952 4.76795227 -1.08229065 3.94888306 C-1 2 -1 2 0 0 Z " fill="#1F1F1F" transform="translate(540,576)"/>
<path d="M0 0 C0.96292969 -0.020625 1.92585938 -0.04125 2.91796875 -0.0625 C3.84222656 -0.06765625 4.76648438 -0.0728125 5.71875 -0.078125 C6.56373047 -0.0874707 7.40871094 -0.09681641 8.27929688 -0.10644531 C10.95490581 0.32301698 11.82015679 1.18092483 13.5 3.25 C12.84 4.57 12.18 5.89 11.5 7.25 C11.17 7.25 10.84 7.25 10.5 7.25 C10.5 5.6 10.5 3.95 10.5 2.25 C3.24 2.25 -4.02 2.25 -11.5 2.25 C-11.5 27 -11.5 51.75 -11.5 77.25 C-4.24 77.25 3.02 77.25 10.5 77.25 C10.5 67.35 10.5 57.45 10.5 47.25 C19.41 47.25 28.32 47.25 37.5 47.25 C37.5 57.48 37.5 67.71 37.5 78.25 C44.76 78.25 52.02 78.25 59.5 78.25 C59.5 53.17 59.5 28.09 59.5 2.25 C52.24 2.58 44.98 2.91 37.5 3.25 C37.5 11.5 37.5 19.75 37.5 28.25 C36.18 28.58 34.86 28.91 33.5 29.25 C33.60828125 28.31994141 33.60828125 28.31994141 33.71875 27.37109375 C34.45459804 20.34987708 34.48759563 13.48215694 34.2421875 6.4375 C34.5 3.25 34.5 3.25 35.71728516 1.57348633 C38.03277194 -0.14552954 39.41523299 -0.1233921 42.28125 -0.11328125 C43.20550781 -0.11263672 44.12976563 -0.11199219 45.08203125 -0.11132812 C46.52642578 -0.0871582 46.52642578 -0.0871582 48 -0.0625 C48.96292969 -0.06572266 49.92585937 -0.06894531 50.91796875 -0.07226562 C58.09923115 -0.01717923 58.09923115 -0.01717923 61.5 2.25 C61.79204046 4.7286455 61.88900515 6.95764539 61.85644531 9.43774414 C61.85848969 10.17770126 61.86053406 10.91765839 61.86264038 11.68003845 C61.86565468 14.13199371 61.84715399 16.58328067 61.828125 19.03515625 C61.82506867 20.73383925 61.82319159 22.43252474 61.82244873 24.13121033 C61.81784176 27.69312105 61.80339985 31.25480618 61.78125 34.81665039 C61.75294581 39.39246123 61.74203688 43.96809435 61.7375679 48.54398441 C61.73342004 52.05173028 61.72360824 55.55943988 61.71169281 59.06716728 C61.70597828 60.75494532 61.70122351 62.44272689 61.69742584 64.13051033 C61.69058465 66.48428672 61.67696318 68.83791949 61.66113281 71.19165039 C61.66001495 71.89556915 61.65889709 72.59948792 61.65774536 73.32473755 C61.61468769 78.13531231 61.61468769 78.13531231 60.5 79.25 C58.64630389 79.33737645 56.78932459 79.35698153 54.93359375 79.34765625 C53.80888672 79.34443359 52.68417969 79.34121094 51.52539062 79.33789062 C50.34138672 79.32951172 49.15738281 79.32113281 47.9375 79.3125 C46.74962891 79.30798828 45.56175781 79.30347656 44.33789062 79.29882812 C41.39187774 79.28699675 38.44596319 79.27051287 35.5 79.25 C34.6367399 75.53111134 34.38278444 72.10703512 34.40234375 68.29296875 C34.40556641 67.18115234 34.40878906 66.06933594 34.41210938 64.92382812 C34.42467773 63.1980957 34.42467773 63.1980957 34.4375 61.4375 C34.44201172 60.26767578 34.44652344 59.09785156 34.45117188 57.89257812 C34.46293057 55.01169677 34.48086526 52.13084181 34.5 49.25 C23.61 48.755 23.61 48.755 12.5 48.25 C12.51160156 50.32023437 12.52320313 52.39046875 12.53515625 54.5234375 C12.5421086 56.52571493 12.5490259 58.52799265 12.55493164 60.53027344 C12.5599643 61.92318477 12.56679098 63.3160908 12.57543945 64.70898438 C12.58755152 66.70961246 12.59270412 68.71027888 12.59765625 70.7109375 C12.60551147 72.51763916 12.60551147 72.51763916 12.61352539 74.36083984 C12.5 77.25 12.5 77.25 11.5 79.25 C3.25 79.25 -5 79.25 -13.5 79.25 C-13.5 53.51 -13.5 27.77 -13.5 1.25 C-9.04308098 -0.23563967 -4.66874835 0.02499999 0 0 Z " fill="#727272" transform="translate(506.5,455.75)"/>
<path d="M0 0 C1.8569751 -0.00472824 1.8569751 -0.00472824 3.75146484 -0.009552 C5.11295609 -0.00776222 6.47444701 -0.00571127 7.8359375 -0.00341797 C9.22216814 -0.00409106 10.60839867 -0.00506113 11.99462891 -0.00631714 C14.90333172 -0.00779387 17.81200387 -0.00564037 20.72070312 -0.00097656 C24.45690348 0.00472073 28.19303202 0.00144159 31.92922974 -0.00454903 C34.79273016 -0.00815532 37.65621343 -0.00701574 40.51971436 -0.00442123 C41.89768482 -0.00375215 43.27565682 -0.00457973 44.65362549 -0.00690079 C46.57637504 -0.00942839 48.49913002 -0.0048957 50.421875 0 C52.06615479 0.00119339 52.06615479 0.00119339 53.74365234 0.00241089 C56.2109375 0.12939453 56.2109375 0.12939453 57.2109375 1.12939453 C57.47543317 3.94774286 57.67991002 6.74233829 57.8359375 9.56689453 C57.8875 10.35644531 57.9390625 11.14599609 57.9921875 11.95947266 C58.33543019 17.88040914 58.33543019 17.88040914 57.2109375 20.12939453 C44.6709375 20.12939453 32.1309375 20.12939453 19.2109375 20.12939453 C18.8809375 19.46939453 18.5509375 18.80939453 18.2109375 18.12939453 C30.7509375 18.12939453 43.2909375 18.12939453 56.2109375 18.12939453 C56.2109375 13.17939453 56.2109375 8.22939453 56.2109375 3.12939453 C55.07889893 3.13463135 53.94686035 3.13986816 52.78051758 3.14526367 C48.46949088 3.16374094 44.15846744 3.17497789 39.84741211 3.18432617 C38.00235399 3.189271 36.15729959 3.19602828 34.31225586 3.20483398 C31.61831731 3.2173434 28.92443162 3.22272077 26.23046875 3.22705078 C25.44203079 3.23221207 24.65359283 3.23737335 23.84126282 3.24269104 C13.930848 3.24360472 4.14570531 2.60247871 -5.7890625 2.12939453 C-5.7890625 26.87939453 -5.7890625 51.62939453 -5.7890625 77.12939453 C15.3309375 77.12939453 36.4509375 77.12939453 58.2109375 77.12939453 C58.2109375 77.78939453 58.2109375 78.44939453 58.2109375 79.12939453 C36.7609375 79.12939453 15.3109375 79.12939453 -6.7890625 79.12939453 C-7.79129296 75.12047267 -7.8802921 72.01542376 -7.82666016 67.89819336 C-7.81865891 67.17745132 -7.81065765 66.45670929 -7.80241394 65.71412659 C-7.77459167 63.33812717 -7.73909859 60.96231473 -7.703125 58.58642578 C-7.68135285 56.93544423 -7.65990343 55.28445839 -7.63876343 53.63346863 C-7.59331212 50.17770797 -7.54408843 46.72202706 -7.4921875 43.26635742 C-7.42580461 38.82747356 -7.36859808 34.38852741 -7.31415749 29.94948292 C-7.27141686 26.54293009 -7.22396909 23.13645556 -7.17506027 19.72998619 C-7.15210135 18.09246451 -7.13059942 16.45492176 -7.11055374 14.81736183 C-7.08189477 12.53561184 -7.0469454 10.25404511 -7.01025391 7.97241211 C-6.99169342 6.67209549 -6.97313293 5.37177887 -6.95401001 4.03205872 C-6.66679623 -1.02218639 -4.55231407 0.00330399 0 0 Z " fill="#797979" transform="translate(322.7890625,455.87060546875)"/>
<path d="M0 0 C-1.73465118 3.77447247 -3.98353683 6.13435999 -7 9 C-7.66 9.66 -8.32 10.32 -9 11 C-3.06 11.33 2.88 11.66 9 12 C9.09765625 20.49609375 9.09765625 20.49609375 9 23 C7.34920558 24.65079442 5.36263821 24.22549447 3.08984375 24.31640625 C2.10048828 24.35830078 1.11113281 24.40019531 0.09179688 24.44335938 C-0.94912109 24.48267578 -1.99003906 24.52199219 -3.0625 24.5625 C-4.10728516 24.60568359 -5.15207031 24.64886719 -6.22851562 24.69335938 C-8.81886884 24.79981225 -11.40932186 24.9018276 -14 25 C-14 26.65 -14 28.3 -14 30 C-14.66 30 -15.32 30 -16 30 C-16 27.36 -16 24.72 -16 22 C-8.08 22 -0.16 22 8 22 C8 19.03 8 16.06 8 13 C-4.21 13 -16.42 13 -29 13 C-29 27.85 -29 42.7 -29 58 C-17.12 58 -5.24 58 7 58 C7 54.37 7 50.74 7 47 C7.66 47 8.32 47 9 47 C10.125 54.5 10.125 54.5 9 59 C-3.87 59 -16.74 59 -30 59 C-30.16541802 52.46726052 -30.32779422 45.93459914 -30.48217773 39.40161133 C-30.53568392 37.17728264 -30.59101963 34.9529972 -30.64819336 32.72875977 C-30.7298646 29.53932018 -30.80504388 26.34978501 -30.87890625 23.16015625 C-30.91945885 21.65860741 -30.91945885 21.65860741 -30.96083069 20.12672424 C-30.98092697 19.20584518 -31.00102325 18.28496613 -31.02172852 17.33618164 C-31.04171402 16.52121719 -31.06169952 15.70625275 -31.08229065 14.86659241 C-31 13 -31 13 -30 12 C-27.98405418 11.76572222 -25.961526 11.58663876 -23.9375 11.4375 C-22.83277344 11.35371094 -21.72804688 11.26992188 -20.58984375 11.18359375 C-19.73519531 11.12300781 -18.88054688 11.06242188 -18 11 C-17.62875 9.6696875 -17.62875 9.6696875 -17.25 8.3125 C-13.72328484 -1.03329517 -9.23330733 -0.65330005 0 0 Z " fill="#898989" transform="translate(617,564)"/>
<path d="M0 0 C3.24992446 -0.05819424 6.49971435 -0.09366116 9.75 -0.125 C10.67039062 -0.14175781 11.59078125 -0.15851563 12.5390625 -0.17578125 C13.87324219 -0.18544922 13.87324219 -0.18544922 15.234375 -0.1953125 C16.05131836 -0.20578613 16.86826172 -0.21625977 17.70996094 -0.22705078 C20.23081965 0.0228851 21.78277245 0.82287905 24 2 C24.02312428 11.89189376 24.04091552 21.78378114 24.05181217 31.67569637 C24.05704082 36.2684264 24.06413812 40.861138 24.07543945 45.45385742 C24.086269 49.88233688 24.09227698 54.31079856 24.09487724 58.73929024 C24.09673137 60.43265628 24.10035175 62.12602129 24.10573006 63.81937981 C24.1129414 66.18291232 24.1139909 68.54637045 24.11352539 70.90991211 C24.11712067 71.61697296 24.12071594 72.32403381 24.12442017 73.05252075 C24.11405216 77.88594784 24.11405216 77.88594784 23 79 C21.21928754 79.08726223 19.4351686 79.10699041 17.65234375 79.09765625 C16.57275391 79.09443359 15.49316406 79.09121094 14.38085938 79.08789062 C13.24455078 79.07951172 12.10824219 79.07113281 10.9375 79.0625 C9.79732422 79.05798828 8.65714844 79.05347656 7.48242188 79.04882812 C4.65489649 79.03699747 1.8274736 79.0205141 -1 79 C-1 78.34 -1 77.68 -1 77 C6.59 77 14.18 77 22 77 C22 52.58 22 28.16 22 3 C15.07 3 8.14 3 1 3 C1 16.53 1 30.06 1 44 C0.34 44 -0.32 44 -1 44 C-1.4021875 42.8553125 -1.4021875 42.8553125 -1.8125 41.6875 C-2.94424112 39.12619116 -3.91223401 37.80307062 -6 36 C-5.67 35.34 -5.34 34.68 -5 34 C-3.68 34.99 -2.36 35.98 -1 37 C-1.00523682 35.95021973 -1.01047363 34.90043945 -1.01586914 33.81884766 C-1.03394239 29.93132375 -1.04544054 26.04380356 -1.05493164 22.15625 C-1.05996653 20.47232438 -1.06679481 18.78840314 -1.07543945 17.10449219 C-1.08754196 14.68683797 -1.09323668 12.26924144 -1.09765625 9.8515625 C-1.10281754 9.0963028 -1.10797882 8.34104309 -1.11329651 7.56289673 C-1.11387171 2.22774341 -1.11387171 2.22774341 0 0 Z " fill="#676767" transform="translate(836,456)"/>
<path d="M0 0 C3.26869557 2.70770145 4.8590824 4.15261552 5.56762695 8.41333008 C5.54144287 9.68587646 5.51525879 10.95842285 5.48828125 12.26953125 C5.48120651 12.95053391 5.47413177 13.63153656 5.46684265 14.33317566 C5.43900069 16.49409995 5.37629527 18.65236822 5.3125 20.8125 C5.28740332 22.28316552 5.26459253 23.75387193 5.24414062 25.22460938 C5.19346908 28.81823565 5.09563711 32.40617011 5 36 C12.26 36 19.52 36 27 36 C27 25.44 27 14.88 27 4 C27.99 3.67 28.98 3.34 30 3 C29.90657189 7.80585058 29.80050341 12.61119094 29.68261719 17.41650391 C29.64429148 19.0518424 29.60944493 20.68726624 29.578125 22.32275391 C29.53255158 24.6712091 29.47454633 27.01907495 29.4140625 29.3671875 C29.39673569 30.46726639 29.39673569 30.46726639 29.37905884 31.58956909 C29.22774341 36.77225659 29.22774341 36.77225659 27 39 C24.56982422 39.13525391 24.56982422 39.13525391 21.5546875 38.9765625 C20.47832031 38.925 19.40195312 38.8734375 18.29296875 38.8203125 C16.60107422 38.72363281 16.60107422 38.72363281 14.875 38.625 C13.17150391 38.53992188 13.17150391 38.53992188 11.43359375 38.453125 C8.6217837 38.31135306 5.81082719 38.15991439 3 38 C2.98018066 37.02651611 2.96036133 36.05303223 2.93994141 35.05004883 C2.86364633 31.42495649 2.77496664 27.80025306 2.68261719 24.17553711 C2.64442591 22.60920919 2.60955606 21.04279651 2.578125 19.47631836 C2.53225929 17.219582 2.47430231 14.96342417 2.4140625 12.70703125 C2.39673569 11.66298882 2.39673569 11.66298882 2.37905884 10.59785461 C2.26037251 6.65368487 1.71878696 3.56120596 0 0 Z " fill="#767676" transform="translate(420,497)"/>
<path d="M0 0 C1.00023193 0.00523682 2.00046387 0.01047363 3.03100586 0.01586914 C4.1105957 0.0190918 5.19018555 0.02231445 6.30249023 0.02563477 C8.00695312 0.03820312 8.00695312 0.03820312 9.74584961 0.05102539 C11.45611328 0.05779297 11.45611328 0.05779297 13.20092773 0.06469727 C16.02845312 0.07652792 18.85587601 0.09301129 21.68334961 0.11352539 C22.01334961 2.09352539 22.34334961 4.07352539 22.68334961 6.11352539 C22.02334961 6.11352539 21.36334961 6.11352539 20.68334961 6.11352539 C20.68334961 4.79352539 20.68334961 3.47352539 20.68334961 2.11352539 C13.42334961 2.11352539 6.16334961 2.11352539 -1.31665039 2.11352539 C-1.31665039 18.61352539 -1.31665039 35.11352539 -1.31665039 52.11352539 C-2.30665039 52.60852539 -2.30665039 52.60852539 -3.31665039 53.11352539 C-3.89425887 41.825581 -4.41561295 30.54311235 -4.44165039 19.23852539 C-4.44616211 18.45058594 -4.45067383 17.66264648 -4.45532227 16.85083008 C-4.4127967 0.21624517 -4.4127967 0.21624517 0 0 Z " fill="#767676" transform="translate(691.316650390625,455.886474609375)"/>
<path d="M0 0 C7.59 0 15.18 0 23 0 C23 0.33 23 0.66 23 1 C16.07 1 9.14 1 2 1 C2 14.53 2 28.06 2 42 C1.34 42 0.68 42 0 42 C-0.4021875 40.8553125 -0.4021875 40.8553125 -0.8125 39.6875 C-1.94424112 37.12619116 -2.91223401 35.80307062 -5 34 C-4.67 33.34 -4.34 32.68 -4 32 C-2.68 32.99 -1.36 33.98 0 35 C0 23.45 0 11.9 0 0 Z " fill="#202020" transform="translate(835,458)"/>
<path d="M0 0 C1.12148437 -0.00128906 2.24296875 -0.00257813 3.3984375 -0.00390625 C4.57664063 -0.00003906 5.75484375 0.00382812 6.96875 0.0078125 C8.11601562 0.00394531 9.26328125 0.00007813 10.4453125 -0.00390625 C17.18229123 0.00376685 23.78241556 0.29606768 30.46875 1.1328125 C30.46875 1.4628125 30.46875 1.7928125 30.46875 2.1328125 C18.25875 2.1328125 6.04875 2.1328125 -6.53125 2.1328125 C-6.53125 7.0828125 -6.53125 12.0328125 -6.53125 17.1328125 C-1.25125 17.1328125 4.02875 17.1328125 9.46875 17.1328125 C9.46875 19.7728125 9.46875 22.4128125 9.46875 25.1328125 C8.80875 25.1328125 8.14875 25.1328125 7.46875 25.1328125 C7.13875 22.8228125 6.80875 20.5128125 6.46875 18.1328125 C5.62570313 18.21660156 4.78265625 18.30039062 3.9140625 18.38671875 C2.81835938 18.48855469 1.72265625 18.59039062 0.59375 18.6953125 C-1.04207031 18.85193359 -1.04207031 18.85193359 -2.7109375 19.01171875 C-5.53125 19.1328125 -5.53125 19.1328125 -7.53125 18.1328125 C-9.11041238 12.67752429 -8.61480547 6.6636565 -7.53125 1.1328125 C-4.9049546 -0.1803352 -2.93866008 0.00326518 0 0 Z " fill="#B5B5B5" transform="translate(172.53125,488.8671875)"/>
<path d="M0 0 C0.33 0 0.66 0 1 0 C1 14.52 1 29.04 1 44 C12.88 44 24.76 44 37 44 C37 40.37 37 36.74 37 33 C37.66 33 38.32 33 39 33 C40.125 40.5 40.125 40.5 39 45 C26.13 45 13.26 45 0 45 C0 30.15 0 15.3 0 0 Z " fill="#4C4C4C" transform="translate(587,578)"/>
<path d="M0 0 C0.66 0 1.32 0 2 0 C2 15.51 2 31.02 2 47 C1.34 47 0.68 47 0 47 C-0.94987878 44.15036367 -1.09747457 42.55762509 -1.02172852 39.62036133 C-1.00163223 38.73967484 -0.98153595 37.85898834 -0.96083069 36.95161438 C-0.93379562 36.00465195 -0.90676056 35.05768951 -0.87890625 34.08203125 C-0.85529526 33.10965012 -0.83168427 32.13726898 -0.80735779 31.13542175 C-0.73074376 28.02763183 -0.64670945 24.9200925 -0.5625 21.8125 C-0.50927707 19.7063925 -0.45653668 17.60027274 -0.40429688 15.49414062 C-0.27513159 10.32926819 -0.1393108 5.16460834 0 0 Z " fill="#2E2E2E" transform="translate(738,458)"/>
<path d="M0 0 C0.92425781 0.00064453 1.84851563 0.00128906 2.80078125 0.00195312 C4.24517578 0.02612305 4.24517578 0.02612305 5.71875 0.05078125 C6.68167969 0.04755859 7.64460937 0.04433594 8.63671875 0.04101562 C15.81798115 0.09610202 15.81798115 0.09610202 19.21875 2.36328125 C18.55875 3.68328125 17.89875 5.00328125 17.21875 6.36328125 C17.21875 5.04328125 17.21875 3.72328125 17.21875 2.36328125 C6.32875 2.85828125 6.32875 2.85828125 -4.78125 3.36328125 C-4.78125 11.61328125 -4.78125 19.86328125 -4.78125 28.36328125 C-6.10125 28.69328125 -7.42125 29.02328125 -8.78125 29.36328125 C-8.7090625 28.74324219 -8.636875 28.12320312 -8.5625 27.484375 C-7.82665196 20.46315833 -7.79365437 13.59543819 -8.0390625 6.55078125 C-7.78125 3.36328125 -7.78125 3.36328125 -6.56396484 1.68676758 C-4.24847806 -0.03224829 -2.86601701 -0.01011085 0 0 Z " fill="#888888" transform="translate(548.78125,455.63671875)"/>
<path d="M0 0 C3.63 0 7.26 0 11 0 C11 0.33 11 0.66 11 1 C10.00419922 1.12955078 10.00419922 1.12955078 8.98828125 1.26171875 C3.16251072 2.18873917 -0.35386238 3.02799415 -4 8 C-8.06101301 14.58164178 -7.28222588 21.46352381 -7 29 C-7.99 29 -8.98 29 -10 29 C-10.55006502 14.3112267 -10.55006502 14.3112267 -7 8 C-6.443125 6.865625 -5.88625 5.73125 -5.3125 4.5625 C-4.879375 3.716875 -4.44625 2.87125 -4 2 C-2.68 2 -1.36 2 0 2 C0 1.34 0 0.68 0 0 Z " fill="#767676" transform="translate(158,473)"/>
<path d="M0 0 C1.23556641 0.01740234 1.23556641 0.01740234 2.49609375 0.03515625 C3.32238281 0.04417969 4.14867187 0.05320312 5 0.0625 C5.63808594 0.07410156 6.27617188 0.08570313 6.93359375 0.09765625 C6.93359375 1.08765625 6.93359375 2.07765625 6.93359375 3.09765625 C5.94359375 3.42765625 4.95359375 3.75765625 3.93359375 4.09765625 C3.47984375 4.92265625 3.02609375 5.74765625 2.55859375 6.59765625 C0.93359375 9.09765625 0.93359375 9.09765625 -1.75390625 9.91015625 C-2.51703125 9.97203125 -3.28015625 10.03390625 -4.06640625 10.09765625 C-5.07777566 7.36695884 -5.11198343 6.23764332 -4.19140625 3.41015625 C-2.5920037 0.12249545 -2.5920037 0.12249545 0 0 Z " fill="#1D1D1D" transform="translate(607.06640625,563.90234375)"/>
<path d="M0 0 C18.315 0.495 18.315 0.495 37 1 C35 3 35 3 31.95898438 3.1953125 C30.68345703 3.17210937 29.40792969 3.14890625 28.09375 3.125 C27.41324585 3.11742676 26.7327417 3.10985352 26.03161621 3.10205078 C23.11599727 3.06928914 20.20093489 3.01298314 17.28564453 2.95898438 C15.15920582 2.92291891 13.03285689 2.89866673 10.90625 2.875 C9.63072266 2.85179687 8.35519531 2.82859375 7.04101562 2.8046875 C3.88869029 2.67108867 3.88869029 2.67108867 2 5 C1.34 3.35 0.68 1.7 0 0 Z " fill="#989898" transform="translate(340,500)"/>
<path d="M0 0 C0.33 0.66 0.66 1.32 1 2 C0.34 2 -0.32 2 -1 2 C-1 6.95 -1 11.9 -1 17 C4.28 17 9.56 17 15 17 C15 19.64 15 22.28 15 25 C14.34 25 13.68 25 13 25 C12.67 22.69 12.34 20.38 12 18 C11.15695313 18.08378906 10.31390625 18.16757812 9.4453125 18.25390625 C8.34960938 18.35574219 7.25390625 18.45757812 6.125 18.5625 C4.48917969 18.71912109 4.48917969 18.71912109 2.8203125 18.87890625 C0 19 0 19 -2 18 C-3.57916238 12.54471179 -3.08355547 6.530844 -2 1 C-1.34 0.67 -0.68 0.34 0 0 Z " fill="#898989" transform="translate(167,489)"/>
<path d="M0 0 C1.6097168 0.00966797 1.6097168 0.00966797 3.25195312 0.01953125 C4.9312793 0.04466797 4.9312793 0.04466797 6.64453125 0.0703125 C7.77568359 0.07933594 8.90683594 0.08835937 10.07226562 0.09765625 C12.86739953 0.12124388 15.6621097 0.1541595 18.45703125 0.1953125 C18.45703125 1.1853125 18.45703125 2.1753125 18.45703125 3.1953125 C10.20703125 2.8653125 1.95703125 2.5353125 -6.54296875 2.1953125 C-6.21296875 3.5153125 -5.88296875 4.8353125 -5.54296875 6.1953125 C-4.88296875 6.1953125 -4.22296875 6.1953125 -3.54296875 6.1953125 C-3.21296875 7.8453125 -2.88296875 9.4953125 -2.54296875 11.1953125 C-3.20296875 10.8653125 -3.86296875 10.5353125 -4.54296875 10.1953125 C-4.54296875 9.5353125 -4.54296875 8.8753125 -4.54296875 8.1953125 C-5.53296875 7.8653125 -6.52296875 7.5353125 -7.54296875 7.1953125 C-7.87296875 5.5453125 -8.20296875 3.8953125 -8.54296875 2.1953125 C-5.14399202 -0.07067198 -3.97977702 -0.04211404 0 0 Z " fill="#C2C2C2" transform="translate(402.54296875,455.8046875)"/>
<path d="M0 0 C2.03833424 1.2739589 4.03852126 2.61061923 6 4 C6 4.66 6 5.32 6 6 C6.66 6 7.32 6 8 6 C8 6.66 8 7.32 8 8 C8.99 8.33 9.98 8.66 11 9 C11 9.66 11 10.32 11 11 C13.97 11.33 16.94 11.66 20 12 C20 12.99 20 13.98 20 15 C17.525 14.505 17.525 14.505 15 14 C15 13.34 15 12.68 15 12 C14.2575 12.061875 13.515 12.12375 12.75 12.1875 C9.52480092 11.96760006 8.30276574 11.21747812 6 9 C6 8.34 6 7.68 6 7 C5.38125 6.773125 4.7625 6.54625 4.125 6.3125 C1.38589791 4.62070165 0.94975528 3.00755839 0 0 Z " fill="#8A8A8A" transform="translate(132,521)"/>
<path d="M0 0 C0.33 0 0.66 0 1 0 C1 12.87 1 25.74 1 39 C-0.98 37.35 -2.96 35.7 -5 34 C-4.67 33.34 -4.34 32.68 -4 32 C-2.68 32.99 -1.36 33.98 0 35 C0 23.45 0 11.9 0 0 Z " fill="#E9E9E9" transform="translate(835,458)"/>
<path d="M0 0 C0.99 0 1.98 0 3 0 C1.44095325 3.82675111 -1.03166087 6.18007783 -4 9 C-4.66 9.66 -5.32 10.32 -6 11 C-8.1640625 11.1953125 -8.1640625 11.1953125 -10.625 11.125 C-11.44226563 11.10695313 -12.25953125 11.08890625 -13.1015625 11.0703125 C-13.72804688 11.04710937 -14.35453125 11.02390625 -15 11 C-14.39816251 8.97954558 -13.72693904 6.97888961 -13 5 C-12.34 4.67 -11.68 4.34 -11 4 C-11 5.65 -11 7.3 -11 9 C-8.59122743 8.88658466 -8.59122743 8.88658466 -6 8 C-4.9590934 6.35857037 -3.95495674 4.69287785 -3 3 C-2.01 3 -1.02 3 0 3 C0 2.01 0 1.02 0 0 Z " fill="#727272" transform="translate(614,564)"/>
<path d="M0 0 C2.9375 1.25 2.9375 1.25 6 3 C6.875 5.1875 6.875 5.1875 7 7 C7.66 7 8.32 7 9 7 C12.36561591 13.0605925 14.61330541 18.03949747 15 25 C14.34 25.33 13.68 25.66 13 26 C12.90203125 25.443125 12.8040625 24.88625 12.703125 24.3125 C11.03550797 15.80190275 7.8989189 9.36462302 2 3 C1.34 2.67 0.68 2.34 0 2 C0 1.34 0 0.68 0 0 Z " fill="#C1C1C1" transform="translate(939,462)"/>
<path d="M0 0 C1.485 0.99 1.485 0.99 3 2 C3 2.66 3 3.32 3 4 C3.66 4 4.32 4 5 4 C5.556875 5.010625 6.11375 6.02125 6.6875 7.0625 C8.22543357 9.78984263 9.91358081 12.26230978 11.8125 14.75 C12.534375 15.8225 13.25625 16.895 14 18 C13.67 18.99 13.34 19.98 13 21 C9 16.25 9 16.25 9 14 C8.01 13.67 7.02 13.34 6 13 C5.690625 11.865625 5.38125 10.73125 5.0625 9.5625 C4.39099225 5.93740933 4.39099225 5.93740933 1.875 4.5625 C1.25625 4.376875 0.6375 4.19125 0 4 C0 2.68 0 1.36 0 0 Z " fill="#858585" transform="translate(815,467)"/>
<path d="M0 0 C5.117113 7.67566951 4.66864575 17.09441386 4 26 C3.27129326 28.96116089 2.347324 31.24921351 1 34 C0.67 34 0.34 34 0 34 C0 31.36 0 28.72 0 26 C0.66 26 1.32 26 2 26 C1.85815167 22.97893247 1.71164333 19.95820903 1.5625 16.9375 C1.52318359 16.08994141 1.48386719 15.24238281 1.44335938 14.36914062 C1.19996611 9.51999791 0.77401958 4.79371788 0 0 Z " fill="#9C9C9C" transform="translate(665,479)"/>
<path d="M0 0 C0.33 0 0.66 0 1 0 C1.12379245 4.48395303 1.21442571 8.96699602 1.2746582 13.45214844 C1.29977103 14.9770643 1.33386883 16.50186015 1.37719727 18.02636719 C1.43800044 20.22100426 1.46623887 22.4140481 1.48828125 24.609375 C1.51446533 25.92905273 1.54064941 27.24873047 1.56762695 28.60839844 C1 32 1 32 -1.40551758 34.46191406 C-4 36 -4 36 -6 36 C-6 35.01 -6 34.02 -6 33 C-4.35 32.34 -2.7 31.68 -1 31 C-0.67 20.77 -0.34 10.54 0 0 Z " fill="#383838" transform="translate(202,492)"/>
<path d="M0 0 C1.97119141 -0.2487793 1.97119141 -0.2487793 4.3515625 -0.07421875 C5.62773438 0.00795898 5.62773438 0.00795898 6.9296875 0.09179688 C7.81914063 0.16462891 8.70859375 0.23746094 9.625 0.3125 C10.5221875 0.37373047 11.419375 0.43496094 12.34375 0.49804688 C14.56386306 0.65156533 16.78194979 0.81943161 19 1 C19 1.66 19 2.32 19 3 C12.07 3 5.14 3 -2 3 C-1.34 2.01 -0.68 1.02 0 0 Z " fill="#393939" transform="translate(604,592)"/>
<path d="M0 0 C4.8998928 0.50688546 9.44356134 0.9996123 14 3 C14.33 3.99 14.66 4.98 15 6 C13.68 6.33 12.36 6.66 11 7 C11 6.34 11 5.68 11 5 C7.37 4.34 3.74 3.68 0 3 C0 2.01 0 1.02 0 0 Z " fill="#858485" transform="translate(637,456)"/>
<path d="M0 0 C0.99 0.495 0.99 0.495 2 1 C2 1.99 2 2.98 2 4 C2.66 4 3.32 4 4 4 C4.86846831 5.74294678 5.71930627 7.49468663 6.5625 9.25 C7.27599609 10.71179688 7.27599609 10.71179688 8.00390625 12.203125 C9.07573421 15.21264978 8.90238311 16.0706834 8 19 C6.65632608 16.58858519 5.32497485 14.17166012 4 11.75 C3.42765625 10.72712891 3.42765625 10.72712891 2.84375 9.68359375 C2.4828125 9.01972656 2.121875 8.35585938 1.75 7.671875 C1.24726563 6.76066895 1.24726563 6.76066895 0.734375 5.83105469 C0 4 0 4 0 0 Z " fill="#7A7A7A" transform="translate(291,512)"/>
<path d="M0 0 C0.33 0.99 0.66 1.98 1 3 C-4.08952561 8.06245367 -7.85333259 10.85142845 -15 12 C-15 11.01 -15 10.02 -15 9 C-11.535 8.505 -11.535 8.505 -8 8 C-8 7.34 -8 6.68 -8 6 C-6.34928604 4.97388051 -4.68029994 3.97691857 -3 3 C-1.24850835 1.41754725 -1.24850835 1.41754725 0 0 Z " fill="#979797" transform="translate(755,523)"/>
<path d="M0 0 C-3 2 -3 2 -6 2 C-4.68 3.65 -3.36 5.3 -2 7 C-2.33 7.66 -2.66 8.32 -3 9 C-3.556875 8.54625 -4.11375 8.0925 -4.6875 7.625 C-7.05313439 5.96266232 -9.29015658 4.97855457 -12 4 C-12 3.34 -12 2.68 -12 2 C-10.56656 1.46809459 -9.12804633 0.94984742 -7.6875 0.4375 C-6.48673828 0.00244141 -6.48673828 0.00244141 -5.26171875 -0.44140625 C-3 -1 -3 -1 0 0 Z " fill="#A3A3A3" transform="translate(289,497)"/>
<path d="M0 0 C2.35704293 0.94672118 3.72222261 1.55274832 5.08203125 3.7421875 C7.34953384 10.36281003 6.96536209 16.1261567 6 23 C5.34 22.67 4.68 22.34 4 22 C4.03480469 20.93072266 4.03480469 20.93072266 4.0703125 19.83984375 C4.20987302 12.43316746 3.68375213 6.57812881 0 0 Z " fill="#8A8A8A" transform="translate(637,478)"/>
<path d="M0 0 C0.74886475 0.00523682 1.49772949 0.01047363 2.26928711 0.01586914 C3.07817383 0.0190918 3.88706055 0.02231445 4.72045898 0.02563477 C5.5705957 0.03401367 6.42073242 0.04239258 7.29663086 0.05102539 C8.15063477 0.05553711 9.00463867 0.06004883 9.88452148 0.06469727 C12.00108749 0.07652166 14.11761771 0.0944577 16.23413086 0.11352539 C16.56413086 1.76352539 16.89413086 3.41352539 17.23413086 5.11352539 C16.57413086 5.11352539 15.91413086 5.11352539 15.23413086 5.11352539 C14.90413086 3.79352539 14.57413086 2.47352539 14.23413086 1.11352539 C9.28413086 1.11352539 4.33413086 1.11352539 -0.76586914 1.11352539 C-1.09586914 2.76352539 -1.42586914 4.41352539 -1.76586914 6.11352539 C-2.42586914 6.11352539 -3.08586914 6.11352539 -3.76586914 6.11352539 C-2.69972178 0.17356154 -2.69972178 0.17356154 0 0 Z " fill="#A2A2A2" transform="translate(498.765869140625,575.886474609375)"/>
<path d="M0 0 C0.33 0.66 0.66 1.32 1 2 C0.34 2 -0.32 2 -1 2 C-1.25523437 2.71542969 -1.51046875 3.43085938 -1.7734375 4.16796875 C-3.0876888 7.20246618 -4.69496016 9.63188911 -6.625 12.3125 C-7.25664062 13.19550781 -7.88828125 14.07851563 -8.5390625 14.98828125 C-9.26222656 15.98408203 -9.26222656 15.98408203 -10 17 C-10 13.0448329 -8.54912492 10.85157489 -6.6875 7.375 C-6.07261719 6.20710938 -5.45773437 5.03921875 -4.82421875 3.8359375 C-3 1 -3 1 0 0 Z " fill="#A2A2A2" transform="translate(452,457)"/>
<path d="M0 0 C0.33 0 0.66 0 1 0 C1.69260358 6.03554548 2.11251733 11.92406438 2 18 C1.01 18 0.02 18 -1 18 C-1.02707139 15.75006641 -1.04642829 13.50003905 -1.0625 11.25 C-1.07410156 9.99703125 -1.08570313 8.7440625 -1.09765625 7.453125 C-1.02021027 4.71463499 -0.82780815 2.58119707 0 0 Z " fill="#656565" transform="translate(149,484)"/>
<path d="M0 0 C0.33 0 0.66 0 1 0 C1.08333357 4.8333472 0.95261487 9.23692563 0 14 C-0.66 14 -1.32 14 -2 14 C-3.5166762 9.14663617 -2.4221911 5.74063699 -1 1 C-0.67 0.67 -0.34 0.34 0 0 Z " fill="#818181" transform="translate(127,478)"/>
<path d="M0 0 C0 0.66 0 1.32 0 2 C-5.61 2 -11.22 2 -17 2 C-17 2.66 -17 3.32 -17 4 C-19.97 3.505 -19.97 3.505 -23 3 C-16.15237255 -0.85472849 -7.64760421 -0.12334845 0 0 Z " fill="#929292" transform="translate(636,455)"/>
<path d="M0 0 C0.99 0.33 1.98 0.66 3 1 C3.73046875 2.84765625 3.73046875 2.84765625 4.1875 5.0625 C4.34605469 5.79597656 4.50460937 6.52945313 4.66796875 7.28515625 C4.83232422 8.13400391 4.83232422 8.13400391 5 9 C4.01 9.495 4.01 9.495 3 10 C3 9.34 3 8.68 3 8 C2.01 8 1.02 8 0 8 C-0.33 8.66 -0.66 9.32 -1 10 C-0.67 6.7 -0.34 3.4 0 0 Z " fill="#8B8B8B" transform="translate(504,589)"/>
<path d="M0 0 C1.49080078 0.02707031 1.49080078 0.02707031 3.01171875 0.0546875 C3.77097656 0.07789063 4.53023438 0.10109375 5.3125 0.125 C4.9825 1.115 4.6525 2.105 4.3125 3.125 C-2.1225 3.62 -2.1225 3.62 -8.6875 4.125 C-8.6875 3.465 -8.6875 2.805 -8.6875 2.125 C-5.26655758 -0.15562828 -4.00562778 -0.09425007 0 0 Z " fill="#727272" transform="translate(452.6875,573.875)"/>
<path d="M0 0 C1.3805087 3.76668598 0.59568159 6.44789173 -0.4375 10.25 C-0.72496094 11.32765625 -1.01242187 12.4053125 -1.30859375 13.515625 C-1.53675781 14.33546875 -1.76492188 15.1553125 -2 16 C-2.66 16 -3.32 16 -4 16 C-3.65697965 10.01488629 -3.17692157 5.24882694 0 0 Z " fill="#818181" transform="translate(592,473)"/>
<path d="M0 0 C3.50963584 2.33975723 4.92719269 4.33804042 7 8 C7.75 11.875 7.75 11.875 8 15 C7.34 15 6.68 15 6 15 C4.68373308 11.38026598 4 8.90432869 4 5 C3.01 4.67 2.02 4.34 1 4 C0.3125 1.9375 0.3125 1.9375 0 0 Z " fill="#878787" transform="translate(194,464)"/>
<path d="M0 0 C1.58468677 0.45363171 3.16769924 0.91311452 4.75 1.375 C5.63171875 1.63023437 6.5134375 1.88546875 7.421875 2.1484375 C9.76080572 2.9209934 11.83442562 3.83625676 14 5 C13.67 6.32 13.34 7.64 13 9 C12.67 8.34 12.34 7.68 12 7 C11.01 6.67 10.02 6.34 9 6 C9 5.34 9 4.68 9 4 C8.01 4.33 7.02 4.66 6 5 C6 4.34 6 3.68 6 3 C4.02 3 2.04 3 0 3 C0 2.01 0 1.02 0 0 Z " fill="#9D9D9D" transform="translate(460,602)"/>
<path d="M0 0 C0.33 0.99 0.66 1.98 1 3 C-0.28062485 4.7074998 -1.61767557 6.37373596 -3 8 C-3.33 8.99 -3.66 9.98 -4 11 C-4.66 11 -5.32 11 -6 11 C-6.33 11.99 -6.66 12.98 -7 14 C-7.33 13.01 -7.66 12.02 -8 11 C-6.34765625 8.30078125 -6.34765625 8.30078125 -4.0625 5.3125 C-3.31097656 4.31863281 -2.55945313 3.32476562 -1.78515625 2.30078125 C-1.19605469 1.54152344 -0.60695313 0.78226562 0 0 Z " fill="#9A9A9A" transform="translate(467,473)"/>
<path d="M0 0 C-1.8125 2 -1.8125 2 -4 4 C-4.99 4 -5.98 4 -7 4 C-7 4.66 -7 5.32 -7 6 C-8.32 5.67 -9.64 5.34 -11 5 C-9.625 3.5 -9.625 3.5 -8 2 C-7.34 2 -6.68 2 -6 2 C-6 1.34 -6 0.68 -6 0 C-3 -1 -3 -1 0 0 Z " fill="#969696" transform="translate(944,527)"/>
<path d="M0 0 C0.49628906 0.28875 0.99257813 0.5775 1.50390625 0.875 C6.31007855 3.501523 9.5337284 4.45552263 15 4 C15 4.66 15 5.32 15 6 C10.98195309 6.84098656 7.98196457 7.05404945 4 6 C4 5.34 4 4.68 4 4 C3.01 4 2.02 4 1 4 C0.67 2.68 0.34 1.36 0 0 Z " fill="#9B9B9B" transform="translate(715,511)"/>
<path d="M0 0 C0 0.99 0 1.98 0 3 C-1.24176695 3.70226141 -2.49385599 4.38629109 -3.75 5.0625 C-4.79414063 5.63677734 -4.79414063 5.63677734 -5.859375 6.22265625 C-8.36140628 7.1312406 -9.5332355 6.88336837 -12 6 C-12 5.34 -12 4.68 -12 4 C-10.95199219 3.81824219 -10.95199219 3.81824219 -9.8828125 3.6328125 C-8.51769531 3.38144531 -8.51769531 3.38144531 -7.125 3.125 C-5.76761719 2.88136719 -5.76761719 2.88136719 -4.3828125 2.6328125 C-1.83494012 2.16955297 -1.83494012 2.16955297 0 0 Z " fill="#747474" transform="translate(467,618)"/>
<path d="M0 0 C3.42269984 1.14089995 4.7522146 2.20964571 7 5 C7.25 7.75 7.25 7.75 7 10 C3.60582235 6.87378374 1.3937282 4.43458973 0 0 Z " fill="#757575" transform="translate(592,516)"/>
<path d="M0 0 C0.66 0.33 1.32 0.66 2 1 C1.01 1.33 0.02 1.66 -1 2 C-0.67 3.32 -0.34 4.64 0 6 C0.66 6 1.32 6 2 6 C2.33 7.65 2.66 9.3 3 11 C2.34 10.67 1.68 10.34 1 10 C1 9.34 1 8.68 1 8 C0.01 7.67 -0.98 7.34 -2 7 C-2.33 5.35 -2.66 3.7 -3 2 C-2.01 1.34 -1.02 0.68 0 0 Z " fill="#BBBBBB" transform="translate(397,456)"/>
<path d="M0 0 C1 3 1 3 0.07421875 5.0078125 C-0.38339844 5.70648437 -0.84101562 6.40515625 -1.3125 7.125 C-1.76238281 7.82882812 -2.21226562 8.53265625 -2.67578125 9.2578125 C-4 11 -4 11 -6 12 C-6 10.35 -6 8.7 -6 7 C-5.01 6.67 -4.02 6.34 -3 6 C-1.29144978 2.99992729 -1.29144978 2.99992729 0 0 Z " fill="#9B9B9B" transform="translate(950,514)"/>
<path d="M0 0 C0.66 0 1.32 0 2 0 C1.58525633 5.28798182 0.64775386 8.11690718 -3 12 C-3.66 11.67 -4.32 11.34 -5 11 C-4.54625 10.67 -4.0925 10.34 -3.625 10 C-1.15680026 6.9622157 -0.81156856 3.80812939 0 0 Z " fill="#969696" transform="translate(293,483)"/>
<path d="M0 0 C0.99 0 1.98 0 3 0 C5 3 5 3 5 7 C5.66 7.33 6.32 7.66 7 8 C6.01 8.495 6.01 8.495 5 9 C2.3534665 6.3534665 1.40058003 3.43778736 0 0 Z " fill="#8C8C8C" transform="translate(259,508)"/>
<path d="M0 0 C0.66 0 1.32 0 2 0 C3.07421875 5.95703125 3.07421875 5.95703125 3 8 C2.01 8.99 1.02 9.98 0 11 C0 7.37 0 3.74 0 0 Z " fill="#444444" transform="translate(624,611)"/>
<path d="M0 0 C0 0.66 0 1.32 0 2 C-1.26839526 2.50615298 -2.53983102 3.00469099 -3.8125 3.5 C-4.87404297 3.91765625 -4.87404297 3.91765625 -5.95703125 4.34375 C-8 5 -8 5 -11 5 C-11 4.34 -11 3.68 -11 3 C-9.54293274 2.49632243 -8.08429904 1.99717444 -6.625 1.5 C-5.81289062 1.2215625 -5.00078125 0.943125 -4.1640625 0.65625 C-2 0 -2 0 0 0 Z " fill="#979797" transform="translate(196,528)"/>
<path d="M0 0 C0 0.99 0 1.98 0 3 C-3.72430357 3.69289369 -7.21083746 4.11144596 -11 4 C-9.66666667 3.33333333 -8.33333333 2.66666667 -7 2 C-6.319375 1.62875 -5.63875 1.2575 -4.9375 0.875 C-3 0 -3 0 0 0 Z " fill="#8F8F8F" transform="translate(184,532)"/>
<path d="M0 0 C3.66881155 0.70554068 6.70450534 2.27735506 10 4 C9.67 4.99 9.34 5.98 9 7 C8.67 6.34 8.34 5.68 8 5 C7.21625 4.87625 6.4325 4.7525 5.625 4.625 C3 4 3 4 1.1875 1.9375 C0.795625 1.298125 0.40375 0.65875 0 0 Z " fill="#7E7E7E" transform="translate(599,526)"/>
<path d="M0 0 C0.66 0.33 1.32 0.66 2 1 C0.375 6.75 0.375 6.75 -3 9 C-3.99 8.67 -4.98 8.34 -6 8 C-4.68 7.67 -3.36 7.34 -2 7 C-1.34 4.69 -0.68 2.38 0 0 Z " fill="#9B9B9B" transform="translate(737,506)"/>
<path d="M0 0 C0.99 0.33 1.98 0.66 3 1 C4.6875 4.5625 4.6875 4.5625 6 8 C5.34 8 4.68 8 4 8 C4 7.34 4 6.68 4 6 C3.34 6 2.68 6 2 6 C2 5.01 2 4.02 2 3 C1.34 3 0.68 3 0 3 C0 2.01 0 1.02 0 0 Z " fill="#898989" transform="translate(692,519)"/>
<path d="M0 0 C0.66 0 1.32 0 2 0 C1.75 3.375 1.75 3.375 1 7 C-1.0625 8.4375 -1.0625 8.4375 -3 9 C-3 8.34 -3 7.68 -3 7 C-2.34 7 -1.68 7 -1 7 C-1.020625 6.030625 -1.04125 5.06125 -1.0625 4.0625 C-1 1 -1 1 0 0 Z " fill="#848484" transform="translate(928,503)"/>
<path d="M0 0 C0.33 0 0.66 0 1 0 C1 2.64 1 5.28 1 8 C-0.98 6.35 -2.96 4.7 -5 3 C-4.67 2.34 -4.34 1.68 -4 1 C-2.68 1.99 -1.36 2.98 0 4 C0 2.68 0 1.36 0 0 Z " fill="#CECECE" transform="translate(835,489)"/>
<path d="M0 0 C2.875 1.125 2.875 1.125 6 3 C7.375 6.1875 7.375 6.1875 8 9 C7.236875 8.21625 6.47375 7.4325 5.6875 6.625 C3.09108195 3.92742283 3.09108195 3.92742283 0 2 C0 1.34 0 0.68 0 0 Z " fill="#8C8C8C" transform="translate(939,462)"/>
<path d="M0 0 C2.76276177 0.52268466 5.3260876 1.10869587 8 2 C8 2.66 8 3.32 8 4 C6.02 4 4.04 4 2 4 C1.34 2.68 0.68 1.36 0 0 Z " fill="#979797" transform="translate(182,457)"/>
<path d="M0 0 C1.98 0 3.96 0 6 0 C6 0.66 6 1.32 6 2 C7.32 2.33 8.64 2.66 10 3 C7.301935 3.99928333 6.11989571 4.03624754 3.3125 3.1875 C1 2 1 2 0 0 Z " fill="#A8A8A8" transform="translate(609,532)"/>
<path d="M0 0 C0.33 0.66 0.66 1.32 1 2 C0.38125 2.061875 -0.2375 2.12375 -0.875 2.1875 C-3.27761141 2.828919 -3.27761141 2.828919 -4.25 5.5625 C-4.4975 6.366875 -4.745 7.17125 -5 8 C-5.66 8 -6.32 8 -7 8 C-5.98823563 4.59679258 -5.35156418 3.24274669 -2.375 1.1875 C-1.59125 0.795625 -0.8075 0.40375 0 0 Z " fill="#DFDFDF" transform="translate(621,476)"/>
<path d="M0 0 C2.97 0.495 2.97 0.495 6 1 C6 1.66 6 2.32 6 3 C6.66 3.33 7.32 3.66 8 4 C7.01 4.495 7.01 4.495 6 5 C3.96855359 4.06553465 1.96466413 3.06775224 0 2 C0 1.34 0 0.68 0 0 Z " fill="#838383" transform="translate(279,458)"/>
<path d="M0 0 C2.64 0.33 5.28 0.66 8 1 C7.38125 1.28875 6.7625 1.5775 6.125 1.875 C3.86674235 2.93720042 3.86674235 2.93720042 2 5 C1.34 3.35 0.68 1.7 0 0 Z " fill="#666666" transform="translate(340,500)"/>
<path d="" fill="#F9F9F9" transform="translate(0,0)"/>
<path d="" fill="#FCFBFC" transform="translate(0,0)"/>
<path d="" fill="#F9F9F9" transform="translate(0,0)"/>
<path d="" fill="#FFFFFF" transform="translate(0,0)"/>
<path d="" fill="#FCFBFC" transform="translate(0,0)"/>
<path d="" fill="#FEFEFE" transform="translate(0,0)"/>
<path d="" fill="#FFFFFF" transform="translate(0,0)"/>
<path d="" fill="#FFFFFF" transform="translate(0,0)"/>
<path d="" fill="#FDFDFD" transform="translate(0,0)"/>
<path d="" fill="#FFFFFF" transform="translate(0,0)"/>
</svg>
