<?xml version="1.0" encoding="UTF-8"?>
<svg version="1.1" xmlns="http://www.w3.org/2000/svg" width="1080" height="1080">
<path d="M0 0 C2.31032488 -0.01641153 4.62060222 -0.04350003 6.93066406 -0.08203125 C19.21293342 -0.28504397 31.01320552 -0.0121359 43.06420898 2.56103516 C43.98178482 2.75573395 44.89936066 2.95043274 45.84474182 3.15103149 C56.99676537 5.81804293 65.16053824 11.52193778 72.44311523 20.35009766 C75.59025699 25.66711083 77.58782392 31.24855052 77.54077148 37.45947266 C77.53754883 38.21357422 77.53432617 38.96767578 77.53100586 39.74462891 C77.52262695 40.52193359 77.51424805 41.29923828 77.50561523 42.10009766 C77.50110352 42.89287109 77.4965918 43.68564453 77.49194336 44.50244141 C77.48020088 46.45169274 77.46226669 48.40090504 77.44311523 50.35009766 C66.1087215 51.52769701 54.82463003 51.45501873 43.44311523 51.35009766 C43.39356689 50.31079102 43.39356689 50.31079102 43.34301758 49.25048828 C43.28065918 48.34492187 43.21830078 47.43935547 43.15405273 46.50634766 C43.10039551 45.60722656 43.04673828 44.70810547 42.99145508 43.78173828 C42.65753513 41.31154706 42.65753513 41.31154706 41.00024414 39.87158203 C30.69416584 34.42293007 18.29117657 35.06003857 6.98217773 35.14428711 C4.44822079 35.16256084 1.91463136 35.16479595 -0.61938477 35.16455078 C-16.79233241 34.36802264 -16.79233241 34.36802264 -31.55688477 39.35009766 C-32.74384029 42.91096424 -32.90783894 46.32340789 -33.11938477 50.03759766 C-33.16256836 50.73949219 -33.20575195 51.44138672 -33.25024414 52.16455078 C-33.35605836 53.89284972 -33.45695057 55.62144875 -33.55688477 57.35009766 C-32.66533691 57.35374329 -31.77378906 57.35738892 -30.85522461 57.36114502 C-22.38349398 57.39927805 -13.91213847 57.45641261 -5.44067383 57.5340004 C-1.08714462 57.57322692 3.26618982 57.60553531 7.61987305 57.62109375 C11.83471156 57.63642625 16.04901369 57.67115731 20.26361084 57.71840668 C21.85800468 57.73305183 23.45247517 57.74112877 25.04693604 57.74198151 C41.4895986 57.75959132 59.11507296 59.84465422 71.65014648 71.47900391 C82.84611628 83.16281552 80.75431811 100.04676178 80.48901367 115.25 C80.16036398 130.28747176 75.6394978 140.52984422 64.81811523 151.10009766 C46.23006573 166.47715973 9.43389996 163.78214728 -13.47631836 161.88720703 C-27.67733334 160.48086324 -46.09880327 156.85316975 -55.55688477 145.35009766 C-64.05001385 134.70993594 -66.05037076 125.71986467 -65.74438477 112.22509766 C-65.73084961 111.07783203 -65.71731445 109.93056641 -65.70336914 108.74853516 C-65.6683693 105.94854807 -65.61927335 103.14958548 -65.55688477 100.35009766 C-53.87202841 99.58477373 -42.26643252 99.21669775 -30.55688477 99.35009766 C-30.54286621 100.22746582 -30.54286621 100.22746582 -30.52856445 101.12255859 C-30.47475197 103.78258345 -30.39113027 106.44086988 -30.30688477 109.10009766 C-30.29270508 110.02048828 -30.27852539 110.94087891 -30.26391602 111.88916016 C-30.11041323 117.21948833 -30.11041323 117.21948833 -27.82641602 121.91650391 C-23.4305109 124.69326325 -18.64584538 124.82440098 -13.55688477 125.35009766 C-12.27426758 125.48544922 -10.99165039 125.62080078 -9.67016602 125.76025391 C0.99941944 126.67352721 11.58783083 126.18276605 22.25561523 125.53759766 C22.96278687 125.49671021 23.6699585 125.45582275 24.39855957 125.41369629 C26.4415743 125.29209533 28.48328722 125.15762629 30.52514648 125.01806641 C31.71342041 124.93838623 32.90169434 124.85870605 34.12597656 124.77661133 C37.52283487 124.3398474 40.32649685 123.78183852 43.44311523 122.35009766 C44.43648961 120.55980844 44.43648961 120.55980844 44.44311523 118.35009766 C44.51087158 117.50350586 44.57862793 116.65691406 44.6484375 115.78466797 C44.68509521 114.84204102 44.72175293 113.89941406 44.75952148 112.92822266 C44.80141602 111.90341797 44.84331055 110.87861328 44.88647461 109.82275391 C44.92579102 108.75927734 44.96510742 107.69580078 45.00561523 106.60009766 C45.07039063 104.98167969 45.07039063 104.98167969 45.13647461 103.33056641 C45.24240513 100.67053337 45.34447945 98.01040954 45.44311523 95.35009766 C41.61025617 94.4588896 38.0339171 94.21029125 34.10253906 94.17651367 C32.83964554 94.16302383 31.57675201 94.149534 30.27558899 94.13563538 C29.60440851 94.13057543 28.93322803 94.12551548 28.24170876 94.1203022 C26.11496937 94.10372979 23.98839535 94.08047671 21.86174011 94.05540466 C15.8161161 93.98515026 9.77041751 93.9252565 3.72460938 93.87329102 C-48.7745593 93.40989477 -48.7745593 93.40989477 -62.20922852 81.11572266 C-66.94869803 75.53245407 -68.01589411 70.32424505 -67.95532227 63.14306641 C-67.95819244 62.37763016 -67.96106262 61.61219391 -67.96401978 60.82356262 C-67.96605012 59.21252701 -67.96059272 57.60146617 -67.94799805 55.99047852 C-67.93199539 53.554437 -67.94784644 51.12007115 -67.96704102 48.68408203 C-67.98741376 34.60047821 -65.66657393 23.32682209 -55.99438477 12.47509766 C-54.78782227 11.42322266 -54.78782227 11.42322266 -53.55688477 10.35009766 C-52.87368164 9.70169922 -52.19047852 9.05330078 -51.48657227 8.38525391 C-47.6016487 5.686527 -43.80122027 4.76545823 -39.24438477 3.66259766 C-38.42776367 3.45054687 -37.61114258 3.23849609 -36.76977539 3.02001953 C-24.57733578 -0.05966442 -12.50403022 0.06468355 0 0 Z " fill="#000000" transform="translate(207.556884765625,503.64990234375)"/>
<path d="M0 0 C1.62553299 -0.00855011 1.62553299 -0.00855011 3.28390503 -0.01727295 C5.56816649 -0.02667498 7.85244122 -0.03323772 10.13671875 -0.03710938 C13.58618533 -0.04678801 17.03504848 -0.07784731 20.484375 -0.109375 C32.21290085 -0.16516936 43.12581942 0.15295595 54.4921875 3.203125 C55.44843018 3.43636475 56.40467285 3.66960449 57.38989258 3.90991211 C67.31224208 6.39877563 75.69647609 11.70994152 81.4921875 20.203125 C84.44777107 25.67275679 86.6373873 31.03675172 86.58984375 37.3125 C86.58662109 38.06660156 86.58339844 38.82070313 86.58007812 39.59765625 C86.57169922 40.37496094 86.56332031 41.15226563 86.5546875 41.953125 C86.55017578 42.74589844 86.54566406 43.53867187 86.54101562 44.35546875 C86.52927315 46.30472008 86.51133896 48.25393238 86.4921875 50.203125 C74.83039811 51.43531407 63.20363697 51.29765688 51.4921875 51.203125 C51.1621875 47.573125 50.8321875 43.943125 50.4921875 40.203125 C39.56050765 34.97493029 28.74364089 34.88404141 16.84423828 34.94238281 C14.26180216 34.95304402 11.68007043 34.94247416 9.09765625 34.9296875 C-7.41713458 34.26418168 -7.41713458 34.26418168 -22.5078125 39.203125 C-23.69476803 42.76399158 -23.85876668 46.17643524 -24.0703125 49.890625 C-24.11349609 50.59251953 -24.15667969 51.29441406 -24.20117188 52.01757812 C-24.3069861 53.74587706 -24.40787831 55.4744761 -24.5078125 57.203125 C-23.61626465 57.20677063 -22.7247168 57.21041626 -21.80615234 57.21417236 C-13.33442172 57.25230539 -4.86306621 57.30943995 3.60839844 57.38702774 C7.96192764 57.42625426 12.31526209 57.45856266 16.66894531 57.47412109 C20.88378383 57.48945359 25.09808596 57.52418465 29.31268311 57.57143402 C30.90707694 57.58607917 32.50154743 57.59415611 34.0960083 57.59500885 C49.30601493 57.61129851 67.2260912 59.33691711 79.4921875 69.203125 C81.68067968 71.75012324 83.63376007 74.40767533 85.4921875 77.203125 C86.02070312 77.93917969 86.54921875 78.67523437 87.09375 79.43359375 C88.92557171 83.06141942 89.31235843 86.58961765 89.6796875 90.578125 C89.75791748 91.37395996 89.83614746 92.16979492 89.91674805 92.98974609 C91.43670852 109.60820166 91.44358752 126.55537952 82.4921875 141.203125 C81.8734375 142.275625 81.2546875 143.348125 80.6171875 144.453125 C73.36192073 153.84229376 63.02248976 158.33762286 51.4921875 160.203125 C46.68697187 160.71244024 41.87739189 161.03420885 37.0546875 161.328125 C36.38956146 161.36981812 35.72443542 161.41151123 35.03915405 161.45446777 C-22.71961839 165.05165391 -22.71961839 165.05165391 -43.6328125 148.015625 C-51.71795141 140.53527994 -55.1236374 133.0229668 -55.66259766 122.05249023 C-55.70352585 118.7252254 -55.68310577 115.40521799 -55.6328125 112.078125 C-55.62378906 110.93085937 -55.61476563 109.78359375 -55.60546875 108.6015625 C-55.58213788 105.80185752 -55.54940482 103.00260805 -55.5078125 100.203125 C-44.15513508 99.40744298 -32.88763075 99.07494182 -21.5078125 99.203125 C-21.50370361 99.82356689 -21.49959473 100.44400879 -21.49536133 101.08325195 C-21.4624614 103.89501164 -21.39182602 106.70459355 -21.3203125 109.515625 C-21.31451172 110.49208984 -21.30871094 111.46855469 -21.30273438 112.47460938 C-21.22034067 115.13867244 -21.08220449 117.59982763 -20.5078125 120.203125 C-11.29664038 128.76090948 10.33584258 126.39960022 22.20385742 126.01269531 C32.06059835 125.60836596 41.75254406 124.7879327 51.4921875 123.203125 C53.88912258 117.49335283 53.92843215 111.92334985 54.1171875 105.828125 C54.15585937 104.80589844 54.19453125 103.78367187 54.234375 102.73046875 C54.32816714 100.22152903 54.41386629 97.71258736 54.4921875 95.203125 C51.01786708 94.14431437 47.79520634 94.06010754 44.17333984 94.02954102 C42.89035004 94.01605118 41.60736023 94.00256134 40.28549194 93.98866272 C39.6010136 93.98360277 38.91653526 93.97854282 38.21131516 93.97332954 C36.04685074 93.9567923 33.88255118 93.93353881 31.71817017 93.90843201 C25.5641522 93.83808919 19.41005899 93.7783022 13.25585938 93.72631836 C-39.28823132 93.27025853 -39.28823132 93.27025853 -52.6328125 81.59375 C-57.90102044 74.87678487 -58.08933333 67.41253573 -58.3203125 59.203125 C-58.35600342 58.0982373 -58.39169434 56.99334961 -58.4284668 55.85498047 C-58.76992829 41.45055882 -58.43140783 25.8795359 -48.7578125 14.328125 C-35.93410373 1.20020416 -17.47964361 0.0726833 0 0 Z " fill="#000000" transform="translate(523.5078125,503.796875)"/>
<path d="M0 0 C11.55 0 23.1 0 35 0 C35.00410889 3.29033203 35.00821777 6.58066406 35.01245117 9.97070312 C35.02966127 20.85131496 35.07418433 31.73169217 35.13209057 42.61215973 C35.16635686 49.20795728 35.19147009 55.80352329 35.19555664 62.39941406 C35.19984019 68.76682492 35.22830908 75.13371347 35.27343178 81.5009613 C35.28640472 83.92814592 35.29071522 86.35539304 35.28615379 88.78260803 C35.28124675 92.18702343 35.30734816 95.58991295 35.34057617 98.99414062 C35.32763771 100.49386917 35.32763771 100.49386917 35.31443787 102.02389526 C35.44944388 110.29474796 38.19115551 114.92986765 43.6875 120.9375 C46.88526104 123.78955715 48.46380835 124.12757729 52.64575195 124.16113281 C53.61047928 124.17074036 54.5752066 124.1803479 55.56916809 124.19024658 C56.61497543 124.19449646 57.66078278 124.19874634 58.73828125 124.203125 C59.81119919 124.20882507 60.88411713 124.21452515 61.98954773 124.22039795 C64.26344819 124.22985683 66.53736242 124.23638544 68.8112793 124.24023438 C72.28784175 124.24993122 75.76381098 124.28094322 79.24023438 124.3125 C81.44791315 124.31903079 83.65559616 124.32428097 85.86328125 124.328125 C87.42288322 124.3466452 87.42288322 124.3466452 89.01399231 124.36553955 C94.22908884 124.34947377 97.70670392 124.29292169 102 121 C102.66 121 103.32 121 104 121 C104.268125 120.278125 104.53625 119.55625 104.8125 118.8125 C106 116 106 116 107.5625 113.4375 C109.71318392 109.79068814 110.12377564 106.64902192 110.15821838 102.45684814 C110.1680072 101.551035 110.17779602 100.64522186 110.18788147 99.71195984 C110.19363693 98.72581192 110.1993924 97.739664 110.20532227 96.72363281 C110.21522186 95.67941666 110.22512146 94.6352005 110.23532104 93.55934143 C110.26691248 90.10729236 110.29168428 86.65522954 110.31640625 83.203125 C110.3369778 80.80987185 110.35797433 78.41662231 110.37937927 76.02337646 C110.43457911 69.72368295 110.48399767 63.42395677 110.53222656 57.12420654 C110.58245677 50.69605602 110.63813492 44.26795296 110.69335938 37.83984375 C110.80091546 25.22660154 110.90186275 12.61331902 111 0 C122.22 0 133.44 0 145 0 C145.11325988 14.8826962 145.20519947 29.76516882 145.25906086 44.64819527 C145.28474441 51.56005507 145.31970366 58.47162631 145.37719727 65.38330078 C145.43272413 72.06177579 145.4614779 78.73989015 145.47438622 85.4186058 C145.4835774 87.95813571 145.50152494 90.49765049 145.52865028 93.03705215 C145.73834952 113.49445742 143.83117863 129.85340834 129.0625 145.375 C119.66453332 154.18111 106.86204372 160.03019527 93.88110352 160.17700195 C92.38783287 160.19625481 92.38783287 160.19625481 90.86439514 160.21589661 C89.79668381 160.22328354 88.72897247 160.23067047 87.62890625 160.23828125 C86.51499008 160.246353 85.40107391 160.25442474 84.25340271 160.26274109 C81.89396713 160.27656017 79.53451174 160.28729203 77.17504883 160.29516602 C74.78273586 160.30664498 72.39044767 160.32703123 69.99829102 160.35668945 C49.96792306 160.60483368 31.47837104 159.68888318 16.09765625 145.23046875 C4.38992395 132.78146476 -0.3439013 119.31044405 -0.22705078 102.51342773 C-0.22734283 101.40020645 -0.22763489 100.28698517 -0.22793579 99.14002991 C-0.22655076 95.48780316 -0.21102846 91.83578453 -0.1953125 88.18359375 C-0.19157943 85.64054984 -0.18873385 83.09750448 -0.18673706 80.55445862 C-0.17990045 74.56233548 -0.16416341 68.57030065 -0.14403808 62.5782128 C-0.12161039 55.75105856 -0.11066845 48.92390063 -0.10064721 42.09671867 C-0.07979497 28.06443087 -0.0431465 14.03223605 0 0 Z " fill="#000000" transform="translate(304,503)"/>
<path d="M0 0 C0.66 0 1.32 0 2 0 C2 0.99 2 1.98 2 3 C3.09634766 3.17789062 3.09634766 3.17789062 4.21484375 3.359375 C7.00191071 4.00043949 9.03524307 4.93432753 11.5625 6.25 C16.77896561 8.67593697 22.00303479 10.22989399 27.5625 11.625 C28.32183838 11.81868164 29.08117676 12.01236328 29.86352539 12.21191406 C46.17828935 16.15105225 62.5669193 17.72501198 79.27563477 18.88037109 C82.79705412 19.12393168 86.31746591 19.37921642 89.83789062 19.63671875 C113.95422576 21.37940011 138.01245174 22.26053774 162.1875 22.625 C162.90486202 22.63604893 163.62222404 22.64709785 164.36132431 22.6584816 C203.51444839 23.25702591 242.62963856 22.79022697 281.70965576 20.15429688 C284.09809382 19.99339157 286.48678429 19.83659112 288.87548828 19.6796875 C333.70282509 17.67777306 333.70282509 17.67777306 375.00390625 2.1015625 C377 1 377 1 380 1 C377.12124812 8.44200013 373.94879892 15.71308512 370.5625 22.9375 C370.09779297 23.96423828 369.63308594 24.99097656 369.15429688 26.04882812 C368.69216797 27.03173828 368.23003906 28.01464844 367.75390625 29.02734375 C367.34470947 29.91156006 366.9355127 30.79577637 366.51391602 31.70678711 C362.45256317 37.85874442 353.80081896 39.47658254 347 41 C325.91976063 44.98403836 304.60331964 47.05118281 283.1953125 48.0703125 C281.43886439 48.15722996 279.68242541 48.2443321 277.92599487 48.331604 C272.32614515 48.60668277 266.72566291 48.86708648 261.125 49.125 C259.69033386 49.19165234 259.69033386 49.19165234 258.22668457 49.25965118 C213.78456737 51.32022758 169.65516925 51.7526492 125.2068634 49.41717529 C118.86720304 49.08573302 112.52702962 48.81034661 106.18359375 48.5625 C30.40549967 45.52521729 30.40549967 45.52521729 15 35 C13.28110801 32.58284252 12.08110297 30.01506407 10.875 27.3125 C10.55402344 26.62994141 10.23304688 25.94738281 9.90234375 25.24414062 C9.25347876 23.86432532 8.61154483 22.48122951 7.9765625 21.0949707 C6.98033609 18.95781599 5.93231102 16.85357001 4.8671875 14.75 C0 5.08325779 0 5.08325779 0 0 Z " fill="#EB1C25" transform="translate(556,386)"/>
<path d="M0 0 C0.495 5.94 0.495 5.94 1 12 C-1.97 12 -4.94 12 -8 12 C-7.75443359 12.96486328 -7.75443359 12.96486328 -7.50390625 13.94921875 C-6.84665324 17.92840171 -6.893647 21.7881437 -6.9375 25.8125 C-6.94201172 26.60076172 -6.94652344 27.38902344 -6.95117188 28.20117188 C-6.96288688 30.13414761 -6.98082002 32.06708393 -7 34 C-6.05125 34.103125 -5.1025 34.20625 -4.125 34.3125 C-1 35 -1 35 1 38 C3.31 38.33 5.62 38.66 8 39 C8 44.61 8 50.22 8 56 C3.21230687 57.91507725 0.01083671 58.49042339 -5 59 C-4.89128791 71.79833867 -4.77844128 84.59663409 -4.66066074 97.39489269 C-4.60606245 103.34096489 -4.55276156 109.28704216 -4.50268555 115.2331543 C-4.3895806 128.57368467 -4.2532524 141.91354696 -4.07354736 155.25335693 C-4.02538924 158.85787331 -3.98564523 162.46222724 -3.95770264 166.06695557 C-3.92495884 170.2290042 -3.85524101 174.38933563 -3.77734375 178.55078125 C-3.7719735 180.2713398 -3.7719735 180.2713398 -3.76649475 182.0266571 C-3.76755364 187.90267992 -3.76755364 187.90267992 -0.53344727 192.53979492 C0.72060913 193.26259644 0.72060913 193.26259644 2 194 C4.21523844 198.74693951 4 201.4550916 4 207 C-12.17 207 -28.34 207 -45 207 C-43.84246575 195.42465753 -43.84246575 195.42465753 -40 191 C-39.34 191 -38.68 191 -38 191 C-38 147.44 -38 103.88 -38 59 C-55.49 59 -72.98 59 -91 59 C-91 52.4 -91 45.8 -91 39 C-75.82 39 -60.64 39 -45 39 C-44.67 37.68 -44.34 36.36 -44 35 C-41.525 34.505 -41.525 34.505 -39 34 C-39.33 27.4 -39.66 20.8 -40 14 C-42.97 14 -45.94 14 -49 14 C-49 10.04 -49 6.08 -49 2 C-42.50386104 1.71433855 -36.00768559 1.42952685 -29.51147461 1.14550781 C-27.30085234 1.04873727 -25.09024029 0.95173321 -22.87963867 0.85449219 C-19.70494185 0.71488245 -16.53020943 0.57610846 -13.35546875 0.4375 C-12.36475876 0.39375244 -11.37404877 0.35000488 -10.35331726 0.30493164 C-8.97222527 0.24486938 -8.97222527 0.24486938 -7.56323242 0.18359375 C-6.7527092 0.14806396 -5.94218597 0.11253418 -5.10710144 0.07592773 C-3.40565044 0.01461729 -1.70255527 0 0 0 Z " fill="#EB1D25" transform="translate(855,459)"/>
<path d="M0 0 C15.84 0.66 31.68 1.32 48 2 C48 5.96 48 9.92 48 14 C45.69 14 43.38 14 41 14 C41 20.27 41 26.54 41 33 C42.32 33.66 43.64 34.32 45 35 C45.495 36.98 45.495 36.98 46 39 C60.85 39 75.7 39 91 39 C91.33 45.6 91.66 52.2 92 59 C74.51 59 57.02 59 39 59 C39 102.23 39 145.46 39 190 C40.32 190.66 41.64 191.32 43 192 C45.15396998 197.38492494 45 200.93912934 45 207 C29.49 207 13.98 207 -2 207 C-2 196.14285714 -2 196.14285714 1 191 C3.109375 190.3125 3.109375 190.3125 5 190 C4.99777939 189.19949722 4.99555878 188.39899445 4.99327087 187.57423401 C4.96598479 177.23699805 4.94808371 166.89976608 4.9375 156.5625 C4.93621597 155.31731472 4.93621597 155.31731472 4.93490601 154.04697418 C4.90606796 122.3538711 5.27796298 90.68546879 6 59 C5.15695312 58.86722656 4.31390625 58.73445312 3.4453125 58.59765625 C2.34960938 58.42105469 1.25390625 58.24445312 0.125 58.0625 C-0.96554687 57.88847656 -2.05609375 57.71445312 -3.1796875 57.53515625 C-6 57 -6 57 -8 56 C-8 50.39 -8 44.78 -8 39 C-5.36 39 -2.72 39 0 39 C0.1546875 38.071875 0.1546875 38.071875 0.3125 37.125 C1 35 1 35 4 33 C5.32 33 6.64 33 8 33 C7.98839844 31.80761719 7.97679687 30.61523438 7.96484375 29.38671875 C7.95546408 27.82031406 7.94636407 26.25390769 7.9375 24.6875 C7.92493164 23.50897461 7.92493164 23.50897461 7.91210938 22.30664062 C7.90888672 21.54931641 7.90566406 20.79199219 7.90234375 20.01171875 C7.89710693 19.31522217 7.89187012 18.61872559 7.88647461 17.90112305 C8 16 8 16 9 13 C5.7 12.67 2.4 12.34 -1 12 C-1.07329796 7.60212211 -1.07396066 4.29584263 0 0 Z " fill="#EB1D26" transform="translate(635,459)"/>
<path d="M0 0 C19.47 0 38.94 0 59 0 C59 11.22 59 22.44 59 34 C55.04 34 51.08 34 47 34 C47 65.68 47 97.36 47 130 C50.96 130 54.92 130 59 130 C59 141.22 59 152.44 59 164 C39.2 164 19.4 164 -1 164 C-1 152.78 -1 141.56 -1 130 C3.29 130 7.58 130 12 130 C12 98.32 12 66.64 12 34 C8.04 34 4.08 34 0 34 C0 22.78 0 11.56 0 0 Z " fill="#000000" transform="translate(880,499)"/>
<path d="M0 0 C1.27746094 0.25394531 2.55492187 0.50789063 3.87109375 0.76953125 C27.63476079 5.29457824 51.84294099 7.16064923 76 8 C77.14107208 8.04015732 78.28214417 8.08031464 79.45779419 8.12168884 C103.63726625 8.94497982 127.79756662 9.15846229 151.98999023 9.13037109 C156.94152176 9.12467839 161.89299946 9.12806681 166.84452915 9.13381004 C185.99298935 9.1526381 205.1313122 9.07312082 224.2734375 8.546875 C225.00540281 8.526926 225.73736813 8.50697701 226.49151421 8.48642349 C272.13550544 7.46847401 272.13550544 7.46847401 317 0 C317 4.62 317 9.24 317 14 C312.86103828 16.06948086 309.48919396 16.57602768 304.984375 17 C304.19027725 17.08057648 303.3961795 17.16115295 302.57801819 17.24417114 C299.96949994 17.50543203 297.35997233 17.7537153 294.75 18 C293.8468808 18.08715271 292.9437616 18.17430542 292.01327515 18.26409912 C275.02733107 19.90024727 258.0457638 21.1868853 241 22 C240.10551147 22.04382813 239.21102295 22.08765625 238.28942871 22.1328125 C163.97322332 25.76121973 88.87269971 25.36253613 14.8125 17.4375 C13.72573975 17.322854 12.63897949 17.20820801 11.51928711 17.09008789 C10.54999268 16.97656982 9.58069824 16.86305176 8.58203125 16.74609375 C7.34803589 16.60192017 7.34803589 16.60192017 6.08911133 16.45483398 C4 16 4 16 1 14 C0.48828125 10.7421875 0.48828125 10.7421875 0.3125 6.875 C0.24675781 5.59367187 0.18101562 4.31234375 0.11328125 2.9921875 C0.07589844 2.00476563 0.03851562 1.01734375 0 0 Z " fill="#E91D26" transform="translate(587,432)"/>
<path d="M0 0 C2.97 0.33 5.94 0.66 9 1 C9 1.99 9 2.98 9 4 C9.598125 4.2475 10.19625 4.495 10.8125 4.75 C13.36513531 6.20864875 14.56732558 7.43626682 16 10 C15.57421875 12.1328125 15.57421875 12.1328125 15 14 C14.11957031 14.12117188 13.23914063 14.24234375 12.33203125 14.3671875 C11.17058594 14.53476562 10.00914062 14.70234375 8.8125 14.875 C7.66394531 15.03742188 6.51539063 15.19984375 5.33203125 15.3671875 C-0.15145494 16.40859988 -3.86482689 18.2192703 -8 22 C-8 22.66 -8 23.32 -8 24 C-6.7934375 24.433125 -6.7934375 24.433125 -5.5625 24.875 C-3 26 -3 26 -2 28 C-0.9275 28.28875 0.145 28.5775 1.25 28.875 C7.80618219 30.84185466 10.75387426 34.6504277 14.25 40.375 C14.93578125 41.47585938 15.6215625 42.57671875 16.328125 43.7109375 C18.3536784 47.69578788 19.50795169 50.83373542 18.46875 55.265625 C16.22159036 57.91918586 13.85424755 58.08211885 10.5 58.75 C9.3346875 58.99234375 8.169375 59.2346875 6.96875 59.484375 C-3.30630648 61.26899007 -14.58159586 60 -25 60 C-25 59.01 -25 58.02 -25 57 C-25.66 58.32 -26.32 59.64 -27 61 C-29.97 61 -32.94 61 -36 61 C-36.495 59.515 -36.495 59.515 -37 58 C-37.99 57.67 -38.98 57.34 -40 57 C-40 56.01 -40 55.02 -40 54 C-40.66 53.67 -41.32 53.34 -42 53 C-39.525 52.505 -39.525 52.505 -37 52 C-37 51.01 -37 50.02 -37 49 C-35.68 49 -34.36 49 -33 49 C-32.67 49.99 -32.34 50.98 -32 52 C-31.67 50.35 -31.34 48.7 -31 47 C-28.03 46.505 -28.03 46.505 -25 46 C-25 46.66 -25 47.32 -25 48 C-24.34 48 -23.68 48 -23 48 C-23 47.34 -23 46.68 -23 46 C-20.36 46 -17.72 46 -15 46 C-15 45.34 -15 44.68 -15 44 C-13.96875 44.04125 -12.9375 44.0825 -11.875 44.125 C-8.0876594 44.00282772 -5.44005707 43.55621629 -2 42 C-1.67 41.01 -1.34 40.02 -1 39 C-1.88300781 38.90976562 -2.76601563 38.81953125 -3.67578125 38.7265625 C-9.26616848 37.50469173 -12.98292322 33.93900639 -17 30 C-20.33515236 24.64354318 -21.45603759 18.28951838 -21 12 C-18.03980923 6.91217211 -14.21805697 4.42266931 -9 2 C-6.25 1.75 -6.25 1.75 -4 2 C-3.01 2 -2.02 2 -1 2 C-0.67 1.34 -0.34 0.68 0 0 Z " fill="#000000" transform="translate(259,410)"/>
<path d="M0 0 C0.98226562 0.00410889 1.96453125 0.00821777 2.9765625 0.01245117 C4.04390625 0.01438477 5.11125 0.01631836 6.2109375 0.01831055 C7.32984375 0.03055664 8.44875 0.04280273 9.6015625 0.05541992 C11.27992188 0.05638672 11.27992188 0.05638672 12.9921875 0.05737305 C21.32099931 0.10263833 21.32099931 0.10263833 23.6015625 1.24291992 C24.54584443 4.07576572 24.73793434 5.86466948 24.76269531 8.80273438 C24.77230286 9.72411697 24.7819104 10.64549957 24.79180908 11.59480286 C24.79605896 12.5885643 24.80030884 13.58232574 24.8046875 14.60620117 C24.81038757 15.6309404 24.81608765 16.65567963 24.82196045 17.71147156 C24.83140965 19.88104215 24.83794411 22.05062709 24.84179688 24.22021484 C24.85149415 27.53207588 24.88251531 30.84331414 24.9140625 34.1550293 C24.92059356 36.26374957 24.92584363 38.37247428 24.9296875 40.48120117 C24.9420343 41.46888992 24.9543811 42.45657867 24.96710205 43.47419739 C24.94926084 49.00793605 24.78897064 54.05551178 20.6015625 58.24291992 C17.17371521 58.57719956 13.73111442 58.56787026 10.2890625 58.61791992 C8.84370117 58.67399414 8.84370117 58.67399414 7.36914062 58.73120117 C5.97405273 58.74860352 5.97405273 58.74860352 4.55078125 58.76635742 C3.69830811 58.78617676 2.84583496 58.80599609 1.9675293 58.82641602 C-0.3984375 58.24291992 -0.3984375 58.24291992 -2.67895508 56.43359375 C-5.28484168 51.59810717 -4.93111808 47.07766179 -4.859375 41.66870117 C-4.85845856 40.54852097 -4.85754211 39.42834076 -4.8565979 38.2742157 C-4.85056504 35.91144563 -4.83482868 33.54868309 -4.81005859 31.18603516 C-4.77346582 27.55822792 -4.76903989 23.93143962 -4.76953125 20.3034668 C-4.75970337 18.00853605 -4.74804781 15.71361224 -4.734375 13.41870117 C-4.73103653 11.78436882 -4.73103653 11.78436882 -4.72763062 10.11701965 C-4.71487091 9.11225082 -4.70211121 8.10748199 -4.68896484 7.07226562 C-4.68134125 6.18577835 -4.67371765 5.29929108 -4.66586304 4.38594055 C-4.26364608 1.16276583 -3.18553277 0.32263896 0 0 Z " fill="#EB1D26" transform="translate(735.3984375,462.757080078125)"/>
<path d="M0 0 C3.3125 1.625 3.3125 1.625 6 4 C6.93416036 8.7745974 5.35766146 11.87409245 3 16 C4.155 15.67 5.31 15.34 6.5 15 C12.82351701 13.47478551 17.62678146 12.90920605 23.5 16.125 C25.5 17.48828125 25.5 17.48828125 27 19 C27.5 22.3125 27.5 22.3125 27 25 C22.02509977 25.7896667 18.2451278 26.24970045 13.375 24.875 C10.07500935 24.00658141 8.17374923 23.94163807 5 25.25 C1.93695902 26.67004083 1.93695902 26.67004083 1 29 C0.34 29 -0.32 29 -1 29 C-0.979375 30.27875 -0.95875 31.5575 -0.9375 32.875 C-0.875 36.75 -0.875 36.75 -2 39 C-2.18322714 41.16382523 -2.32200405 43.33150456 -2.4375 45.5 C-2.76712769 50.76863928 -3.40121769 55.70207265 -4.6953125 60.81640625 C-5.05898965 63.42275916 -4.63334564 65.46215728 -4 68 C-7 70 -7 70 -9.1875 69.625 C-9.785625 69.41875 -10.38375 69.2125 -11 69 C-11.103125 68.360625 -11.20625 67.72125 -11.3125 67.0625 C-11.539375 66.381875 -11.76625 65.70125 -12 65 C-12.99 64.67 -13.98 64.34 -15 64 C-15.33 62.35 -15.66 60.7 -16 59 C-16.66 59 -17.32 59 -18 59 C-18.90920398 53.6356965 -19.06701252 51.03834302 -17 46 C-17.31445513 43.66404762 -17.6503582 41.33094534 -18 39 C-17.81600956 35.9641577 -17.41769564 33.01669072 -17 30 C-19.97 29.67 -22.94 29.34 -26 29 C-27.66670026 25.47051709 -28.13583456 23.71727674 -27 20 C-25.43883181 19.66048381 -23.87598662 19.32867456 -22.3125 19 C-21.44238281 18.814375 -20.57226562 18.62875 -19.67578125 18.4375 C-17.06287036 18.01027953 -14.64186962 17.92383799 -12 18 C-11.9175 17.05125 -11.835 16.1025 -11.75 15.125 C-11.04858446 10.164264 -9.26266156 5.45701636 -7 1 C-4.37310841 -0.31344579 -2.93059745 -0.33302244 0 0 Z " fill="#000000" transform="translate(315,401)"/>
<path d="M0 0 C5.17285484 2.84101158 9.38352215 6.05322784 11.1875 11.75 C11.03737893 14.35209857 10.88007051 16.55535971 10 19 C9.34 19 8.68 19 8 19 C8 20.32 8 21.64 8 23 C7.01 23.495 7.01 23.495 6 24 C5.505 25.485 5.505 25.485 5 27 C4.29875 27.268125 3.5975 27.53625 2.875 27.8125 C0.04145874 28.98287574 -1.15092906 29.98501764 -3.3125 32.0625 C-7.09568998 35.48737023 -9.97281109 35.82360741 -15 36 C-15.33 36.99 -15.66 37.98 -16 39 C-15.31035156 38.79503906 -14.62070312 38.59007812 -13.91015625 38.37890625 C-7.9050281 36.65727143 -2.22590949 35.51032045 4 35 C4 34.34 4 33.68 4 33 C7.19902639 32.91113816 9.92677456 33.08941469 13 34 C13.625 35.8125 13.625 35.8125 14 38 C12 41 12 41 9.9375 41.5 C8.9784375 41.7475 8.9784375 41.7475 8 42 C7.67 42.99 7.34 43.98 7 45 C2.18216875 48.57718801 -2.95410255 50.88592646 -9 51 C-13.57634253 49.79009026 -16.89344167 47.92953405 -20.6875 45.125 C-21.61949219 44.44695312 -22.55148437 43.76890625 -23.51171875 43.0703125 C-25.80031632 41.16614183 -27.47050228 39.54567086 -29 37 C-28.70700977 35.32577014 -28.37309899 33.65821773 -28 32 C-28.63270867 30.65022151 -29.30062468 29.31647119 -30 28 C-30.125 25.25 -30.125 25.25 -30 23 C-28.68 23 -27.36 23 -26 23 C-26 22.34 -26 21.68 -26 21 C-25.34 21 -24.68 21 -24 21 C-23.67 19.35 -23.34 17.7 -23 16 C-22.01 16 -21.02 16 -20 16 C-20 14.68 -20 13.36 -20 12 C-18.68 12 -17.36 12 -16 12 C-15.835 11.319375 -15.67 10.63875 -15.5 9.9375 C-12.28032819 3.63230937 -7.33603235 -1.00928853 0 0 Z M-4 7 C-4.33 7.66 -4.66 8.32 -5 9 C-4.34 9 -3.68 9 -3 9 C-3.33 8.34 -3.66 7.68 -4 7 Z M-3 11 C-4.7143618 12.95927063 -6.38405168 14.95880212 -8 17 C-6.08533633 16.87822312 -6.08533633 16.87822312 -4 16 C-2.22851628 13.52066803 -2.22851628 13.52066803 -1 11 C-1.66 11 -2.32 11 -3 11 Z " fill="#000000" transform="translate(469,421)"/>
<path d="M0 0 C3.625 -0.1875 3.625 -0.1875 7 0 C7.33 0.99 7.66 1.98 8 3 C8.598125 3.144375 9.19625 3.28875 9.8125 3.4375 C12.87737404 4.22561047 14.06049979 5.52546525 16 8 C17.9191102 13.50144923 16.0358829 17.82402652 14 23 C13.34 23 12.68 23 12 23 C12 24.32 12 25.64 12 27 C10.35 27 8.7 27 7 27 C7 27.66 7 28.32 7 29 C2.13439277 33.87854767 -2.19116129 35.75682719 -9 36 C-9 36.99 -9 37.98 -9 39 C-8.33613281 38.79503906 -7.67226563 38.59007812 -6.98828125 38.37890625 C-6.10527344 38.10949219 -5.22226562 37.84007812 -4.3125 37.5625 C-3.44238281 37.29566406 -2.57226562 37.02882813 -1.67578125 36.75390625 C1 36 1 36 3.68359375 35.47265625 C6.07305962 35.08110831 6.07305962 35.08110831 8.375 33.875 C11.8463357 32.7178881 14.45576415 33.30505179 18 34 C18 34.66 18 35.32 18 36 C18.66 36 19.32 36 20 36 C19.67 36.99 19.34 37.98 19 39 C18.34 39 17.68 39 17 39 C17 39.66 17 40.32 17 41 C16.01 41.33 15.02 41.66 14 42 C13.690625 42.61875 13.38125 43.2375 13.0625 43.875 C11.75006524 46.49986951 10.45760296 47.41306615 8 49 C2.81846836 50.67587492 -2.79937356 51.88107765 -8 50 C-11.1917151 47.87408976 -14.08763802 45.48942706 -17 43 C-18.010625 42.236875 -19.02125 41.47375 -20.0625 40.6875 C-22.96973608 36.65488222 -22.42057366 32.81323188 -22 28 C-22.66 28 -23.32 28 -24 28 C-24 26.35 -24 24.7 -24 23 C-22.35 23 -20.7 23 -19 23 C-19 22.34 -19 21.68 -19 21 C-18.34 21 -17.68 21 -17 21 C-16.814375 19.7934375 -16.814375 19.7934375 -16.625 18.5625 C-16.41875 17.716875 -16.2125 16.87125 -16 16 C-15.34 15.67 -14.68 15.34 -14 15 C-14 14.01 -14 13.02 -14 12 C-12.68 12 -11.36 12 -10 12 C-10 11.01 -10 10.02 -10 9 C-9.34 9 -8.68 9 -8 9 C-8 8.34 -8 7.68 -8 7 C-6.00669158 5.65668346 -4.00615134 4.32405988 -2 3 C-1.34 2.01 -0.68 1.02 0 0 Z M0.375 13.375 C-1.21531408 14.89968321 -1.21531408 14.89968321 -1 17 C2.11332248 16.33131686 2.11332248 16.33131686 3.1875 13.9375 C3.455625 13.298125 3.72375 12.65875 4 12 C1.89968321 11.78468592 1.89968321 11.78468592 0.375 13.375 Z M-14 19 C-14.33 20.32 -14.66 21.64 -15 23 C-14.34 21.68 -13.68 20.36 -13 19 C-13.33 19 -13.66 19 -14 19 Z " fill="#000000" transform="translate(407,421)"/>
<path d="M0 0 C2.51580399 1.49277996 4.68843549 3.18700823 7 5 C6.01 8.63 5.02 12.26 4 16 C4.969375 15.67 5.93875 15.34 6.9375 15 C11.8150066 13.64733116 17.20315507 12.5344299 21.87109375 14.98046875 C24.17591259 16.77679039 25.78235219 18.49215512 26.9375 21.1875 C27 23 27 23 26 25 C20.77589024 26.33840829 16.92081775 26.12792119 12 24 C8.26699104 24.30473543 5.18520485 24.99450065 2 27 C1.67 27.66 1.34 28.32 1 29 C0.34 29 -0.32 29 -1 29 C-1.05333496 29.57903076 -1.10666992 30.15806152 -1.16162109 30.75463867 C-1.61871999 35.53344266 -2.15198227 40.29244575 -2.7890625 45.05078125 C-2.92570313 46.07880859 -3.06234375 47.10683594 -3.203125 48.16601562 C-3.48708626 50.28389335 -3.77624691 52.40107973 -4.0703125 54.51757812 C-4.204375 55.53916016 -4.3384375 56.56074219 -4.4765625 57.61328125 C-4.60111816 58.52891846 -4.72567383 59.44455566 -4.85400391 60.38793945 C-5.00655736 63.11731969 -4.65134905 65.35490196 -4 68 C-6.3125 69.125 -6.3125 69.125 -9 70 C-10.485 69.01 -10.485 69.01 -12 68 C-12 67.01 -12 66.02 -12 65 C-12.639375 64.7525 -13.27875 64.505 -13.9375 64.25 C-16 63 -16 63 -16.75 60.875 C-16.8325 60.25625 -16.915 59.6375 -17 59 C-17.66 59 -18.32 59 -19 59 C-19 55.37 -19 51.74 -19 48 C-18.01 47.505 -18.01 47.505 -17 47 C-17.33 46.67 -17.66 46.34 -18 46 C-18.39446773 40.59347171 -17.90654677 35.32596226 -17 30 C-18.98567708 29.8046875 -20.97135417 29.609375 -22.95703125 29.4140625 C-25 29 -25 29 -28 27 C-28.1875 23.375 -28.1875 23.375 -28 20 C-26.98679687 19.9690625 -25.97359375 19.938125 -24.9296875 19.90625 C-20.72967295 19.56204654 -16.67356949 19.2027047 -13 17 C-10.22910107 13.29051912 -9.15519203 8.90825817 -7.98046875 4.4921875 C-7.65691406 3.33976562 -7.33335937 2.18734375 -7 1 C-4.31934797 -0.34032602 -2.9987992 -0.39983989 0 0 Z " fill="#000000" transform="translate(520,401)"/>
<path d="M0 0 C0.9075 0.391875 1.815 0.78375 2.75 1.1875 C2.75 1.8475 2.75 2.5075 2.75 3.1875 C4.07 3.8475 5.39 4.5075 6.75 5.1875 C6.27769631 9.74242884 4.76821835 11.56684452 1.4375 14.625 C-1.28533715 17.2013554 -3.66033769 19.51325607 -5.5625 22.75 C-6.119375 23.554375 -6.67625 24.35875 -7.25 25.1875 C-8.57 25.1875 -9.89 25.1875 -11.25 25.1875 C-11.29898437 25.80496094 -11.34796875 26.42242187 -11.3984375 27.05859375 C-12.53778803 39.96468508 -12.53778803 39.96468508 -14.25 44.1875 C-17.25 45.1875 -17.25 45.1875 -20.4375 43.75 C-21.365625 43.234375 -22.29375 42.71875 -23.25 42.1875 C-23.25 41.1975 -23.25 40.2075 -23.25 39.1875 C-23.91 39.1875 -24.57 39.1875 -25.25 39.1875 C-28.1816004 30.39269879 -27.22891927 17.52862892 -23.25 9.1875 C-21.25 7.1875 -21.25 7.1875 -18.3125 6.9375 C-15.25 7.1875 -15.25 7.1875 -12.25 9.1875 C-11.92 8.1975 -11.59 7.2075 -11.25 6.1875 C-10.59 6.1875 -9.93 6.1875 -9.25 6.1875 C-9.0025 5.589375 -8.755 4.99125 -8.5 4.375 C-6.19650849 0.34388986 -4.68459095 -1.17114774 0 0 Z " fill="#000000" transform="translate(365.25,424.8125)"/>
<path d="M0 0 C1.93681161 -0.08107583 3.8745934 -0.13922475 5.8125 -0.1875 C6.89144531 -0.22230469 7.97039063 -0.25710938 9.08203125 -0.29296875 C12 0 12 0 13.91015625 1.28515625 C15.71584285 4.12636205 14.58765712 6.82665157 14 10 C14.33 10.33 14.66 10.66 15 11 C15.375 13.875 15.375 13.875 15 17 C11.99312728 19.90987683 9.27203957 20.18585264 5.25 20.25 C1.16891892 20.16891892 1.16891892 20.16891892 0 19 C-0.08651611 17.58429877 -0.10704904 16.164405 -0.09765625 14.74609375 C-0.09443359 13.89208984 -0.09121094 13.03808594 -0.08789062 12.15820312 C-0.07951172 11.26037109 -0.07113281 10.36253906 -0.0625 9.4375 C-0.05798828 8.53580078 -0.05347656 7.63410156 -0.04882812 6.70507812 C-0.03700225 4.46998686 -0.0205222 2.23502563 0 0 Z M4 2 C4 3.98 4 5.96 4 8 C5.65 8 7.3 8 9 8 C9.66 6.68 10.32 5.36 11 4 C8.04622502 1.63019987 8.04622502 1.63019987 4 2 Z M4 11 C4 12.98 4 14.96 4 17 C5.65 17 7.3 17 9 17 C9.66 15.68 10.32 14.36 11 13 C8.04622502 10.63019987 8.04622502 10.63019987 4 11 Z " fill="#000000" transform="translate(809,685)"/>
<path d="M0 0 C3.125 1.9375 3.125 1.9375 5 5 C5.6857504 8.16016642 5.70372582 10.84181582 5 14 C2.49786501 17.63946908 0.84795497 18.74875408 -3.375 20 C-7.69434556 20 -10.25592614 19.12898317 -14 17 C-16.03911719 14.51759647 -16.02252869 12.79348702 -16.375 9.5625 C-15.93878362 5.41844436 -14.90869728 3.90869728 -12 1 C-8.26690106 -0.86654947 -4.06552807 -0.5424959 0 0 Z M-6 2 C-9.29629828 4.20874962 -9.29629828 4.20874962 -12 7 C-12.13613462 10.94790395 -11.87351975 13.00169172 -9.25 16 C-6.33305134 17.29642163 -4.98207327 17.07048784 -2 16 C-0.02512574 14.5188443 0.83477251 13.35405891 1.875 11.125 C2.06272566 7.93366377 0.95243991 6.47309056 -1 4 C-3.57099402 2.65310085 -3.57099402 2.65310085 -6 2 Z " fill="#000000" transform="translate(746,685)"/>
<path d="M0 0 C3.86678587 2.62941439 3.86678587 2.62941439 5 6 C5.39152542 10.69830501 5.28984243 15.29811175 5 20 C4.01 20 3.02 20 2 20 C2 19.34 2 18.68 2 18 C1.34 18.350625 0.68 18.70125 0 19.0625 C-3.94285321 20.29464163 -7.05750043 20.24283389 -11 19 C-13.72411796 16.82070563 -14.7573387 15.27570513 -15.41015625 11.84375 C-15.6782732 7.71887391 -15.31315244 5.51148233 -13.125 1.9375 C-8.70838934 -0.80079861 -5.05827288 -1.10286933 0 0 Z M-11 5 C-12.43735246 7.87470493 -12.38172649 9.81894588 -12 13 C-9.9315113 15.5714939 -9.9315113 15.5714939 -7 17 C-4.24875747 16.86850174 -4.24875747 16.86850174 -2 16 C-2 14.68 -2 13.36 -2 12 C-0.68 12 0.64 12 2 12 C1.89592083 8.59919423 1.89592083 8.59919423 1 5 C-3.8884656 1.11429657 -6.0054674 1.6703116 -11 5 Z " fill="#000000" transform="translate(482,685)"/>
<path d="M0 0 C3.22868746 -0.14584064 6.45652365 -0.23424106 9.6875 -0.3125 C10.59951172 -0.35439453 11.51152344 -0.39628906 12.45117188 -0.43945312 C19.13031568 -0.5608921 19.13031568 -0.5608921 21.76025391 1.13525391 C23.14453125 2.51953125 23.14453125 2.51953125 25 5 C25.4125 4.175 25.825 3.35 26.25 2.5 C27.11625 1.2625 27.11625 1.2625 28 0 C29.32 0 30.64 0 32 0 C31.55375924 2.90056497 30.81839832 4.23835221 29 6.625 C26.38015987 11.04598022 26.19982916 14.94432216 26 20 C25.01 20 24.02 20 23 20 C22.99613281 19.03900391 22.99613281 19.03900391 22.9921875 18.05859375 C22.72979122 12.18966357 21.73561883 8.71330998 17.86328125 4.27734375 C15.53521476 2.48867139 15.53521476 2.48867139 10 2 C10 7.94 10 13.88 10 20 C9.01 20 8.02 20 7 20 C7 14.06 7 8.12 7 2 C4.69 2 2.38 2 0 2 C0 1.34 0 0.68 0 0 Z " fill="#000000" transform="translate(547,685)"/>
<path d="M0 0 C1.32 0 2.64 0 4 0 C5.00816056 2.58041096 6.0067111 5.16386944 7 7.75 C7.28617188 8.47960937 7.57234375 9.20921875 7.8671875 9.9609375 C8.13789062 10.66992188 8.40859375 11.37890625 8.6875 12.109375 C8.93886719 12.75874023 9.19023438 13.40810547 9.44921875 14.07714844 C10 16 10 16 10 20 C9.01 20 8.02 20 7 20 C6.67 19.01 6.34 18.02 6 17 C3.03 16.67 0.06 16.34 -3 16 C-3.33 17.32 -3.66 18.64 -4 20 C-5.32 19.67 -6.64 19.34 -8 19 C-6.00386732 12.2813095 -3.2708579 6.19265192 0 0 Z M1 7 C0.67 8.65 0.34 10.3 0 12 C1.32 12 2.64 12 4 12 C3.34 10.35 2.68 8.7 2 7 C1.67 7 1.34 7 1 7 Z " fill="#000000" transform="translate(688,685)"/>
<path d="M0 0 C0.99 0 1.98 0 3 0 C4.17578304 2.57952403 5.340791 5.16303938 6.5 7.75 C6.83386719 8.47960937 7.16773438 9.20921875 7.51171875 9.9609375 C7.98544922 11.02441406 7.98544922 11.02441406 8.46875 12.109375 C8.76201172 12.75874023 9.05527344 13.40810547 9.35742188 14.07714844 C10 16 10 16 10 20 C8.68 19.67 7.36 19.34 6 19 C6 18.01 6 17.02 6 16 C3.03 16 0.06 16 -3 16 C-3.33 17.32 -3.66 18.64 -4 20 C-5.32 19.67 -6.64 19.34 -8 19 C-6.00386732 12.2813095 -3.2708579 6.19265192 0 0 Z M1 7 C0.67 8.65 0.34 10.3 0 12 C1.32 12 2.64 12 4 12 C3.34 10.35 2.68 8.7 2 7 C1.67 7 1.34 7 1 7 Z " fill="#000000" transform="translate(797,685)"/>
<path d="M0 0 C1.32 0 2.64 0 4 0 C5.1787322 2.39054107 6.34302997 4.78645215 7.5 7.1875 C7.83386719 7.86103516 8.16773438 8.53457031 8.51171875 9.22851562 C10.29700132 12.96303529 11.46127195 15.75794549 11 20 C10.01 20 9.02 20 8 20 C7.34 19.01 6.68 18.02 6 17 C4.03638136 16.42251197 4.03638136 16.42251197 1.875 16.3125 C0.59625 16.209375 -0.6825 16.10625 -2 16 C-2.33 17.32 -2.66 18.64 -3 20 C-3.99 20 -4.98 20 -6 20 C-5.50104522 12.84831485 -2.68436185 6.58708719 0 0 Z M1 7 C0.67 8.65 0.34 10.3 0 12 C1.32 12 2.64 12 4 12 C3.67 10.35 3.34 8.7 3 7 C2.34 7 1.68 7 1 7 Z " fill="#000000" transform="translate(514,685)"/>
<path d="M0 0 C0.99 0 1.98 0 3 0 C3 2.64 3 5.28 3 8 C5.97 8 8.94 8 12 8 C12 5.36 12 2.72 12 0 C13.32 0 14.64 0 16 0 C16 6.27 16 12.54 16 19 C14.68 19.33 13.36 19.66 12 20 C12 17.03 12 14.06 12 11 C9.03 11 6.06 11 3 11 C3 13.97 3 16.94 3 20 C2.01 20 1.02 20 0 20 C0 13.4 0 6.8 0 0 Z " fill="#000000" transform="translate(639,685)"/>
<path d="M0 0 C1.32 0 2.64 0 4 0 C4.33 4.95 4.66 9.9 5 15 C6.32 15.33 7.64 15.66 9 16 C10.4807848 13.0384304 10.35314037 10.16493705 10.5625 6.875 C10.64628906 5.59367188 10.73007812 4.31234375 10.81640625 2.9921875 C10.87699219 2.00476563 10.93757813 1.01734375 11 0 C12.32 0 13.64 0 15 0 C15.0809313 2.60478883 15.14045434 5.20706653 15.1875 7.8125 C15.22520508 8.91948242 15.22520508 8.91948242 15.26367188 10.04882812 C15.3377215 15.50381681 15.3377215 15.50381681 13.66796875 17.95703125 C11.08525556 19.57198306 9.03157435 19.87873703 6 20 C3.67268444 18.86220128 1.83159286 17.83159286 0 16 C-0.07319621 13.30345146 -0.09242537 10.63308542 -0.0625 7.9375 C-0.05798828 7.17888672 -0.05347656 6.42027344 -0.04882812 5.63867188 C-0.0370068 3.75908129 -0.01907078 1.87953101 0 0 Z " fill="#000000" transform="translate(490,685)"/>
<path d="M0 0 C10.00813296 -0.60289958 10.00813296 -0.60289958 14.1875 1.9375 C16.63029149 6.06497527 16.92510469 9.31506617 16 14 C14.34806613 16.83188664 13.23181689 18.42808501 10.25 19.8125 C6.8445657 20.09628619 3.41723827 20 0 20 C0 13.4 0 6.8 0 0 Z M3 2 C3 6.95 3 11.9 3 17 C9.37013613 16.56228296 9.37013613 16.56228296 11.9375 14.8125 C13.54073557 12.07756873 13.38077478 10.1096607 13 7 C12.0785608 4.57695632 12.0785608 4.57695632 10 3 C7.69 2.67 5.38 2.34 3 2 Z " fill="#000000" transform="translate(771,685)"/>
<path d="M0 0 C10.47998945 -0.36988198 10.47998945 -0.36988198 12.8671875 1.328125 C14 3 14 3 13.8125 5.9375 C13 9 13 9 11.8125 11 C10.57216693 14.05312755 11.79804364 16.06188446 13 19 C12.01 19.33 11.02 19.66 10 20 C6 13.25 6 13.25 6 11 C5.01 11 4.02 11 3 11 C3 13.64 3 16.28 3 19 C2.01 19 1.02 19 0 19 C0 12.73 0 6.46 0 0 Z M3 2 C3 3.98 3 5.96 3 8 C6.465 7.505 6.465 7.505 10 7 C10 5.68 10 4.36 10 3 C7.69 2.67 5.38 2.34 3 2 Z " fill="#000000" transform="translate(882,685)"/>
<path d="M0 0 C2.05859375 -0.3984375 2.05859375 -0.3984375 4.4375 -0.375 C5.21996094 -0.38273438 6.00242187 -0.39046875 6.80859375 -0.3984375 C9.4428201 0.08051275 10.32614504 0.96553963 12 3 C11.67 3.99 11.34 4.98 11 6 C8 6 8 6 6.3125 4.5 C5.879375 4.005 5.44625 3.51 5 3 C4.01 3.33 3.02 3.66 2 4 C1.67 4.99 1.34 5.98 1 7 C2.258125 7.103125 3.51625 7.20625 4.8125 7.3125 C7.36524139 7.64232322 8.79802006 7.87376254 11 9.25 C12.43951779 11.76915613 12.55686738 13.1460547 12 16 C9.9375 18.375 9.9375 18.375 7 20 C0.78947368 19.78947368 0.78947368 19.78947368 -2 17 C-2 16.01 -2 15.02 -2 14 C-1.01 14 -0.02 14 1 14 C1 14.66 1 15.32 1 16 C2.65 16 4.3 16 6 16 C6.33 15.01 6.66 14.02 7 13 C6.43410156 12.79503906 5.86820313 12.59007812 5.28515625 12.37890625 C4.55167969 12.10949219 3.81820312 11.84007812 3.0625 11.5625 C2.33160156 11.29566406 1.60070312 11.02882813 0.84765625 10.75390625 C-1 10 -1 10 -2 9 C-2.26293056 4.96839809 -2.29404844 3.44107266 0 0 Z " fill="#000000" transform="translate(590,685)"/>
<path d="M0 0 C8.30078125 -0.390625 8.30078125 -0.390625 11 0 C12.8671875 1.859375 12.8671875 1.859375 14 4 C13.79143253 6.78089958 13.26917433 8.56082083 11.8125 10.9375 C10.59190888 14.03592361 11.78224935 16.0232762 13 19 C11.68 19 10.36 19 9 19 C5 13.88888889 5 13.88888889 5 11 C4.01 11 3.02 11 2 11 C2 13.64 2 16.28 2 19 C1.34 19 0.68 19 0 19 C0 12.73 0 6.46 0 0 Z M2 2 C2 3.98 2 5.96 2 8 C5.465 7.505 5.465 7.505 9 7 C9 5.68 9 4.36 9 3 C6.69 2.67 4.38 2.34 2 2 Z " fill="#000000" transform="translate(755,685)"/>
<path d="M0 0 C1.19109375 0.00773438 1.19109375 0.00773438 2.40625 0.015625 C3.2003125 0.01046875 3.994375 0.0053125 4.8125 0 C6.90625 0.265625 6.90625 0.265625 8.90625 2.265625 C8.90625 3.585625 8.90625 4.905625 8.90625 6.265625 C7.91625 5.935625 6.92625 5.605625 5.90625 5.265625 C5.90625 4.605625 5.90625 3.945625 5.90625 3.265625 C3.92625 3.265625 1.94625 3.265625 -0.09375 3.265625 C-0.09375 4.255625 -0.09375 5.245625 -0.09375 6.265625 C0.75509766 6.57306641 0.75509766 6.57306641 1.62109375 6.88671875 C2.35457031 7.15613281 3.08804688 7.42554688 3.84375 7.703125 C4.57464844 7.96996094 5.30554688 8.23679687 6.05859375 8.51171875 C7.90625 9.265625 7.90625 9.265625 8.90625 10.265625 C9.14353814 16.79104873 9.14353814 16.79104873 7.90625 19.265625 C3.99367715 20.24376821 1.72188453 20.61270353 -2.03125 19.015625 C-3.0521875 18.149375 -3.0521875 18.149375 -4.09375 17.265625 C-4.09375 16.275625 -4.09375 15.285625 -4.09375 14.265625 C-3.289375 14.4821875 -3.289375 14.4821875 -2.46875 14.703125 C0.30540827 15.36016248 3.09150388 15.81782448 5.90625 16.265625 C5.90625 14.945625 5.90625 13.625625 5.90625 12.265625 C3.988125 12.08 3.988125 12.08 2.03125 11.890625 C-1.84375 11.515625 -1.84375 11.515625 -4.09375 9.265625 C-4.34375 5.765625 -4.34375 5.765625 -4.09375 2.265625 C-2.09375 0.265625 -2.09375 0.265625 0 0 Z " fill="#000000" transform="translate(626.09375,684.734375)"/>
<path d="M0 0 C4.62 0 9.24 0 14 0 C14 0.66 14 1.32 14 2 C10.7 2 7.4 2 4 2 C4 3.98 4 5.96 4 8 C6.31 8 8.62 8 11 8 C11 8.99 11 9.98 11 11 C8.69 11 6.38 11 4 11 C4 12.98 4 14.96 4 17 C7.3 17 10.6 17 14 17 C13.67 17.99 13.34 18.98 13 20 C11.02090602 20.02686553 9.04171029 20.04633375 7.0625 20.0625 C5.96035156 20.07410156 4.85820313 20.08570313 3.72265625 20.09765625 C1 20 1 20 0 19 C-0.08651611 17.58429877 -0.10704904 16.164405 -0.09765625 14.74609375 C-0.09443359 13.89208984 -0.09121094 13.03808594 -0.08789062 12.15820312 C-0.07951172 11.26037109 -0.07113281 10.36253906 -0.0625 9.4375 C-0.05798828 8.53580078 -0.05347656 7.63410156 -0.04882812 6.70507812 C-0.03700244 4.47002411 -0.01906638 2.23500398 0 0 Z " fill="#000000" transform="translate(925,685)"/>
<path d="M0 0 C1.918125 -0.0825 3.83625 -0.165 5.8125 -0.25 C7.43091797 -0.31960938 7.43091797 -0.31960938 9.08203125 -0.390625 C12 0 12 0 13.8984375 1.8515625 C15 4 15 4 14.8125 6.625 C14 9 14 9 12 11 C9.31160615 11.26991906 6.70858064 11.08737357 4 11 C4 13.97 4 16.94 4 20 C2.68 19.67 1.36 19.34 0 19 C0 12.73 0 6.46 0 0 Z M4 2 C4 3.98 4 5.96 4 8 C7.465 7.505 7.465 7.505 11 7 C11 5.68 11 4.36 11 3 C8.69 2.67 6.38 2.34 4 2 Z " fill="#000000" transform="translate(864,685)"/>
<path d="M0 0 C4.62 0 9.24 0 14 0 C14 0.66 14 1.32 14 2 C10.37 2 6.74 2 3 2 C3 3.98 3 5.96 3 8 C5.64 8 8.28 8 11 8 C11 8.99 11 9.98 11 11 C8.36 11 5.72 11 3 11 C3 12.98 3 14.96 3 17 C6.63 17 10.26 17 14 17 C13.67 17.99 13.34 18.98 13 20 C11.02090602 20.02686553 9.04171029 20.04633375 7.0625 20.0625 C5.96035156 20.07410156 4.85820313 20.08570313 3.72265625 20.09765625 C1 20 1 20 0 19 C-0.08651611 17.58429877 -0.10704904 16.164405 -0.09765625 14.74609375 C-0.09443359 13.89208984 -0.09121094 13.03808594 -0.08789062 12.15820312 C-0.07951172 11.26037109 -0.07113281 10.36253906 -0.0625 9.4375 C-0.05798828 8.53580078 -0.05347656 7.63410156 -0.04882812 6.70507812 C-0.03700244 4.47002411 -0.01906638 2.23500398 0 0 Z " fill="#000000" transform="translate(842,685)"/>
<path d="M0 0 C0.99 0 1.98 0 3 0 C3.04898438 0.98742187 3.09796875 1.97484375 3.1484375 2.9921875 C3.22320313 4.27351562 3.29796875 5.55484375 3.375 6.875 C3.44460938 8.15117188 3.51421875 9.42734375 3.5859375 10.7421875 C3.67241106 14.08061699 3.67241106 14.08061699 6 16 C8.08333333 15.83333333 8.08333333 15.83333333 10 15 C11.41634833 12.16730334 11.3463005 9.52533562 11.5625 6.375 C11.64628906 5.18648437 11.73007812 3.99796875 11.81640625 2.7734375 C11.87699219 1.85820313 11.93757812 0.94296875 12 0 C12.99 0 13.98 0 15 0 C15.13526616 2.5850867 15.23417653 5.16308752 15.3125 7.75 C15.3753418 8.84441406 15.3753418 8.84441406 15.43945312 9.9609375 C15.52792932 13.85389016 15.36516103 15.59682732 12.7109375 18.52734375 C9.07404572 20.50300398 6.94794598 19.96836411 3 19 C1 18 1 18 0.37890625 16.390625 C-0.13369428 13.15648557 -0.09280305 10.02272949 -0.0625 6.75 C-0.05347656 5.48671875 -0.04445313 4.2234375 -0.03515625 2.921875 C-0.02355469 1.95765625 -0.01195312 0.9934375 0 0 Z " fill="#000000" transform="translate(604,685)"/>
<path d="M0 0 C0.33 1.32 0.66 2.64 1 4 C-0.216875 3.731875 -1.43375 3.46375 -2.6875 3.1875 C-6.36223939 2.72325356 -6.80640377 2.86566792 -10.0625 5.125 C-12.23081396 7.78525067 -12.23081396 7.78525067 -12.0625 10.625 C-10.72725493 13.60966544 -9.99018737 14.61991352 -7 16 C-4.22909009 15.94172082 -1.744264 15.50311507 1 15 C0.67 16.32 0.34 17.64 0 19 C-4.45789399 19.84546265 -7.03718877 20.32093708 -11.375 18.875 C-14.46525262 16.6676767 -15.25820408 15.7089796 -16 12 C-16.05502688 8.05378654 -15.53518354 4.97306098 -13.625 1.5 C-9.34441259 -0.94604995 -4.81556356 -0.29889705 0 0 Z " fill="#000000" transform="translate(921,685)"/>
<path d="M0 0 C4.62 0 9.24 0 14 0 C14 0.66 14 1.32 14 2 C10.7 2 7.4 2 4 2 C4 3.98 4 5.96 4 8 C6.31 8 8.62 8 11 8 C11 8.99 11 9.98 11 11 C8.69 11 6.38 11 4 11 C4 13.64 4 16.28 4 19 C2.68 19 1.36 19 0 19 C0 12.73 0 6.46 0 0 Z " fill="#000000" transform="translate(716,685)"/>
<path d="M0 0 C4.29 0 8.58 0 13 0 C13 0.66 13 1.32 13 2 C9.7 2 6.4 2 3 2 C3 3.98 3 5.96 3 8 C5.64 8 8.28 8 11 8 C11 8.99 11 9.98 11 11 C8.36 11 5.72 11 3 11 C3 13.97 3 16.94 3 20 C2.01 20 1.02 20 0 20 C0 13.4 0 6.8 0 0 Z " fill="#000000" transform="translate(701,685)"/>
<path d="M0 0 C1.32 0 2.64 0 4 0 C4 6.6 4 13.2 4 20 C2.68 19.67 1.36 19.34 0 19 C0 12.73 0 6.46 0 0 Z " fill="#000000" transform="translate(658,685)"/>
<path d="M0 0 C0.66 0 1.32 0 2 0 C2 5.61 2 11.22 2 17 C5.3 17 8.6 17 12 17 C12 17.99 12 18.98 12 20 C8.04 20 4.08 20 0 20 C0 13.4 0 6.8 0 0 Z " fill="#000000" transform="translate(828,685)"/>
<path d="M0 0 C0.66 0 1.32 0 2 0 C2 5.61 2 11.22 2 17 C5.3 17 8.6 17 12 17 C12 17.99 12 18.98 12 20 C8.04 20 4.08 20 0 20 C0 13.4 0 6.8 0 0 Z " fill="#000000" transform="translate(528,685)"/>
<path d="M0 0 C0.99 0 1.98 0 3 0 C3 6.6 3 13.2 3 20 C2.01 20 1.02 20 0 20 C0 13.4 0 6.8 0 0 Z " fill="#000000" transform="translate(899,685)"/>
<path d="M0 0 C0.99 0 1.98 0 3 0 C3 6.27 3 12.54 3 19 C2.01 19 1.02 19 0 19 C0 12.73 0 6.46 0 0 Z " fill="#000000" transform="translate(542,685)"/>
<path d="M0 0 C0.66 0 1.32 0 2 0 C2 0.99 2 1.98 2 3 C3.65 3.33 5.3 3.66 7 4 C5 6 5 6 2 8 C0.74335022 5.09399739 0 3.20395416 0 0 Z " fill="#D71F24" transform="translate(556,386)"/>
<path d="M0 0 C0.99 0 1.98 0 3 0 C3 1.98 3 3.96 3 6 C2.01 6 1.02 6 0 6 C0 4.02 0 2.04 0 0 Z " fill="#000000" transform="translate(667,699)"/>
</svg>
